<svg xmlns="http://www.w3.org/2000/svg" width="1800" height="1160" viewBox="0 0 1800 1160" role="img" aria-labelledby="title desc">
  <title id="title">Braid simplified target architecture</title>
  <desc id="desc">Component diagram showing Local Dev Box, Remote Server, and GitHub. Hooks call the Braid CLI, the CLI calls the Local Braid Recorder Daemon, and the daemon owns sync, GitHub actions, and Git note writing.</desc>

  <defs>
    <marker id="arrow" viewBox="0 0 10 10" refX="9" refY="5" markerWidth="8" markerHeight="8" orient="auto">
      <path d="M0,0 L10,5 L0,10 Z" fill="#334155"/>
    </marker>
    <marker id="arrow-muted" viewBox="0 0 10 10" refX="9" refY="5" markerWidth="8" markerHeight="8" orient="auto">
      <path d="M0,0 L10,5 L0,10 Z" fill="#64748b"/>
    </marker>
    <style>
      .bg { fill: #ffffff; }
      .title { font: 700 42px Arial, sans-serif; fill: #0f172a; }
      .subtitle { font: 400 22px Arial, sans-serif; fill: #475569; }
      .zone-title { font: 700 24px Arial, sans-serif; fill: #0f172a; }
      .zone-sub { font: 400 17px Arial, sans-serif; fill: #475569; }
      .node-title { font: 700 20px Arial, sans-serif; fill: #0f172a; text-anchor: middle; }
      .node-sub { font: 400 15px Arial, sans-serif; fill: #475569; text-anchor: middle; }
      .label { font: 700 14px Arial, sans-serif; fill: #0f172a; text-anchor: middle; }
      .small { font: 400 15px Arial, sans-serif; fill: #334155; }
      .note-title { font: 700 18px Arial, sans-serif; fill: #0f172a; }
      .note { font: 400 15px Arial, sans-serif; fill: #334155; }
      .mono { font: 400 14px Menlo, Consolas, monospace; fill: #334155; }
      .zone-local { fill: #f8fafc; stroke: #94a3b8; stroke-width: 2.5; }
      .zone-remote { fill: #f0fdfa; stroke: #14b8a6; stroke-width: 2.5; }
      .zone-github { fill: #f5f3ff; stroke: #8b5cf6; stroke-width: 2.5; }
      .agent-box { fill: #eff6ff; stroke: #2563eb; stroke-width: 2; }
      .node-user { fill: #f1f5f9; stroke: #64748b; stroke-width: 2.5; }
      .node-agent { fill: #e0f2fe; stroke: #0284c7; stroke-width: 2.5; }
      .node-hook { fill: #fef3c7; stroke: #d97706; stroke-width: 2.5; }
      .node-skill { fill: #fae8ff; stroke: #a21caf; stroke-width: 2.5; }
      .node-cli { fill: #ecfeff; stroke: #0891b2; stroke-width: 2.5; }
      .node-daemon { fill: #eef2ff; stroke: #4f46e5; stroke-width: 2.5; }
      .node-store { fill: #f0fdf4; stroke: #16a34a; stroke-width: 2.5; }
      .node-worker { fill: #fff7ed; stroke: #ea580c; stroke-width: 2.5; }
      .node-git { fill: #fff1f2; stroke: #e11d48; stroke-width: 2.5; }
      .node-orch { fill: #f5f3ff; stroke: #7c3aed; stroke-width: 2.5; }
      .node-gh { fill: #f8fafc; stroke: #0f172a; stroke-width: 2.5; }
      .line { stroke: #334155; stroke-width: 3; fill: none; marker-end: url(#arrow); }
      .muted-line { stroke: #64748b; stroke-width: 2.7; fill: none; marker-end: url(#arrow-muted); }
      .return-line { stroke: #64748b; stroke-width: 2.7; stroke-dasharray: 8 8; fill: none; marker-end: url(#arrow-muted); }
      .label-bg { fill: #ffffff; stroke: #e2e8f0; stroke-width: 1.3; }
      .footer { fill: #f8fafc; stroke: #cbd5e1; stroke-width: 2; }
      .badge { fill: #0f766e; }
      .badge-text { font: 700 13px Arial, sans-serif; fill: #ffffff; text-anchor: middle; }
    </style>
  </defs>

  <rect class="bg" width="1800" height="1160"/>

  <text x="60" y="70" class="title">Braid Simplified Target Architecture</text>
  <text x="60" y="108" class="subtitle">Hooks go through Braid CLI. Braid CLI goes through the local recorder daemon. The daemon owns sync, GitHub actions, and Git note writes.</text>

  <!-- Zones -->
  <rect x="50" y="150" width="1085" height="835" rx="22" class="zone-local"/>
  <text x="85" y="195" class="zone-title">Local Dev Box</text>
  <text x="85" y="222" class="zone-sub">Before PR: local Inbox and SQLite are the working source of truth.</text>

  <rect x="1195" y="150" width="550" height="500" rx="22" class="zone-remote"/>
  <text x="1230" y="195" class="zone-title">Remote Server</text>
  <text x="1230" y="222" class="zone-sub">After PR: Intent DB becomes the durable source of truth.</text>

  <rect x="1195" y="700" width="550" height="285" rx="22" class="zone-github"/>
  <text x="1230" y="745" class="zone-title">GitHub</text>
  <text x="1230" y="772" class="zone-sub">PR, merge, and pushed Git note refs live here.</text>

  <!-- Local nodes -->
  <rect x="95" y="260" width="185" height="82" rx="14" class="node-user"/>
  <text x="187.5" y="296" class="node-title">User</text>
  <text x="187.5" y="321" class="node-sub">starts work</text>

  <rect x="95" y="390" width="430" height="285" rx="18" class="agent-box"/>
  <text x="125" y="430" class="zone-title">Agent Runtime</text>
  <text x="125" y="456" class="zone-sub">Braid Skills are installed in the agent and triggered by hooks.</text>

  <rect x="130" y="495" width="165" height="78" rx="13" class="node-agent"/>
  <text x="212.5" y="530" class="node-title">Agent Session</text>
  <text x="212.5" y="555" class="node-sub">current session</text>

  <rect x="330" y="495" width="150" height="78" rx="13" class="node-hook"/>
  <text x="405" y="530" class="node-title">Hooks</text>
  <text x="405" y="555" class="node-sub">lifecycle events</text>

  <rect x="210" y="598" width="210" height="58" rx="13" class="node-skill"/>
  <text x="315" y="625" class="node-title">Braid Skills</text>
  <text x="315" y="647" class="node-sub">Git note skill</text>

  <rect x="635" y="260" width="215" height="85" rx="14" class="node-cli"/>
  <text x="742.5" y="297" class="node-title">Braid CLI</text>
  <text x="742.5" y="322" class="node-sub">single local entry</text>

  <rect x="610" y="425" width="315" height="95" rx="15" class="node-daemon"/>
  <text x="767.5" y="463" class="node-title">Local Braid</text>
  <text x="767.5" y="488" class="node-title">Recorder Daemon</text>
  <text x="767.5" y="510" class="node-sub">validation, routing, side effects</text>

  <rect x="605" y="605" width="225" height="82" rx="14" class="node-store"/>
  <text x="717.5" y="640" class="node-title">Inbox / FileStore</text>
  <text x="717.5" y="665" class="node-sub">pre-attach capture</text>

  <path d="M910,615 C910,602 1110,602 1110,615 L1110,675 C1110,688 910,688 910,675 Z" class="node-store"/>
  <path d="M910,615 C910,628 1110,628 1110,615" fill="none" stroke="#16a34a" stroke-width="2.5"/>
  <text x="1010" y="647" class="node-title">Local SQLite</text>
  <text x="1010" y="672" class="node-sub">raw events and braid record</text>

  <rect x="742" y="760" width="270" height="82" rx="14" class="node-worker"/>
  <text x="877" y="795" class="node-title">Sync / Drain Worker</text>
  <text x="877" y="820" class="node-sub">started by daemon</text>

  <rect x="742" y="885" width="270" height="70" rx="14" class="node-git"/>
  <text x="877" y="916" class="node-title">Local Git Notes</text>
  <text x="877" y="940" class="node-sub">daemon-written note refs</text>

  <!-- Remote nodes -->
  <rect x="1335" y="285" width="230" height="92" rx="15" class="node-orch"/>
  <text x="1450" y="323" class="node-title">Orchestrator</text>
  <text x="1450" y="348" class="node-sub">remote authority</text>

  <path d="M1335,470 C1335,456 1565,456 1565,470 L1565,555 C1565,569 1335,569 1335,555 Z" class="node-store"/>
  <path d="M1335,470 C1335,484 1565,484 1565,470" fill="none" stroke="#16a34a" stroke-width="2.5"/>
  <text x="1450" y="506" class="node-title">Intent DB</text>
  <text x="1450" y="531" class="node-sub">events, braids, SHAs</text>

  <!-- GitHub nodes -->
  <rect x="1265" y="820" width="210" height="88" rx="15" class="node-gh"/>
  <text x="1370" y="856" class="node-title">PR / Merge</text>
  <text x="1370" y="881" class="node-sub">GitHub boundary</text>

  <rect x="1505" y="820" width="210" height="88" rx="15" class="node-git"/>
  <text x="1610" y="856" class="node-title">Remote Git Notes</text>
  <text x="1610" y="881" class="node-sub">pushed refs</text>

  <!-- Local internal arrows -->
  <path d="M280,301 C405,301 505,301 635,301" class="line"/>
  <rect x="430" y="264" width="120" height="26" rx="6" class="label-bg"/>
  <text x="490" y="282" class="label">commands</text>

  <path d="M188,342 C188,365 195,377 212,390" class="muted-line"/>
  <rect x="210" y="349" width="86" height="26" rx="6" class="label-bg"/>
  <text x="253" y="367" class="label">uses</text>

  <path d="M295,534 L330,534" class="line"/>
  <rect x="296" y="500" width="72" height="24" rx="6" class="label-bg"/>
  <text x="332" y="517" class="label">events</text>

  <path d="M405,573 C405,586 375,592 353,598" class="muted-line"/>
  <rect x="384" y="573" width="98" height="24" rx="6" class="label-bg"/>
  <text x="433" y="590" class="label">trigger</text>

  <path d="M315,598 C315,584 342,578 373,573" class="return-line"/>
  <rect x="228" y="571" width="88" height="24" rx="6" class="label-bg"/>
  <text x="272" y="588" class="label">result</text>

  <path d="M480,534 C555,534 588,315 635,315" class="line"/>
  <rect x="500" y="407" width="118" height="26" rx="6" class="label-bg"/>
  <text x="559" y="425" class="label">hook via CLI</text>

  <path d="M742,345 L742,425" class="line"/>
  <rect x="765" y="373" width="116" height="26" rx="6" class="label-bg"/>
  <text x="823" y="391" class="label">all requests</text>

  <path d="M717,520 L717,605" class="line"/>
  <rect x="578" y="555" width="126" height="26" rx="6" class="label-bg"/>
  <text x="641" y="573" class="label">capture first</text>

  <path d="M830,646 C865,600 884,596 910,615" class="line"/>
  <rect x="842" y="586" width="122" height="26" rx="6" class="label-bg"/>
  <text x="903" y="604" class="label">attach folds</text>

  <path d="M825,520 C880,587 878,689 877,760" class="line"/>
  <rect x="882" y="710" width="116" height="26" rx="6" class="label-bg"/>
  <text x="940" y="728" class="label">start drain</text>

  <path d="M1010,688 L1010,760" class="line"/>
  <rect x="1027" y="711" width="112" height="26" rx="6" class="label-bg"/>
  <text x="1083" y="729" class="label">read local</text>

  <path d="M835,520 C790,605 785,792 835,885" class="line"/>
  <rect x="592" y="807" width="188" height="26" rx="6" class="label-bg"/>
  <text x="686" y="825" class="label">generate/write note</text>

  <!-- Remote / GitHub arrows -->
  <path d="M1012,801 C1125,801 1218,331 1335,331" class="line"/>
  <rect x="1110" y="545" width="138" height="26" rx="6" class="label-bg"/>
  <text x="1179" y="563" class="label">sync/drain</text>

  <path d="M1450,377 L1450,456" class="line"/>
  <rect x="1474" y="405" width="138" height="26" rx="6" class="label-bg"/>
  <text x="1543" y="423" class="label">store remote</text>

  <path d="M925,477 C1085,460 1190,357 1335,333" class="muted-line"/>
  <rect x="1040" y="377" width="170" height="26" rx="6" class="label-bg"/>
  <text x="1125" y="395" class="label">query projection</text>

  <path d="M1335,349 C1190,407 1090,500 925,500" class="return-line"/>
  <rect x="1083" y="466" width="130" height="26" rx="6" class="label-bg"/>
  <text x="1148" y="484" class="label">context/ack</text>

  <path d="M925,493 C1105,550 1195,820 1265,858" class="line"/>
  <rect x="1118" y="650" width="104" height="26" rx="6" class="label-bg"/>
  <text x="1170" y="668" class="label">via daemon</text>

  <path d="M1265,881 C1112,895 1030,548 925,512" class="return-line"/>
  <rect x="1055" y="870" width="126" height="26" rx="6" class="label-bg"/>
  <text x="1118" y="888" class="label">status/events</text>

  <path d="M1012,920 C1180,920 1330,864 1505,864" class="line"/>
  <rect x="1195" y="884" width="132" height="26" rx="6" class="label-bg"/>
  <text x="1261" y="902" class="label">push refs</text>

  <!-- Important constraints -->
  <rect x="70" y="1000" width="1655" height="112" rx="16" class="footer"/>
  <text x="100" y="1032" class="note-title">Boundaries and ownership</text>
  <text x="100" y="1058" class="note">Hooks never call the daemon directly; they invoke Braid CLI. Braid CLI never talks to GitHub or remote stores directly.</text>
  <text x="100" y="1080" class="note">It asks the local recorder daemon. The daemon drains Local SQLite through Sync / Drain Worker into Orchestrator.</text>
  <text x="100" y="1102" class="note">Orchestrator writes Intent DB. Git notes are daemon-written locally, then pushed to GitHub.</text>

  <!-- Mini legend -->
  <rect x="1230" y="582" width="470" height="52" rx="10" fill="#ffffff" stroke="#99f6e4" stroke-width="1.5"/>
  <circle cx="1252" cy="607" r="9" class="badge"/>
  <text x="1252" y="612" class="badge-text">1</text>
  <text x="1270" y="604" class="small">PR raised drains braid, raw events, commit SHA,</text>
  <text x="1270" y="626" class="small">merge/PR ids, and digests into Intent DB.</text>
</svg>
