<svg xmlns="http://www.w3.org/2000/svg" width="4420" height="3100" viewBox="0 0 4420 3100">
  <defs>
    <marker id="arrow" viewBox="0 0 10 10" refX="9" refY="5" markerWidth="8" markerHeight="8" orient="auto-start-reverse">
      <path d="M0,0 L10,5 L0,10 Z" fill="#334155"/>
    </marker>
    <style>
      .title { font: 700 48px Arial, sans-serif; fill: #0f172a; }
      .subtitle { font: 400 25px Arial, sans-serif; fill: #475569; }
      .actor-title { font: 700 19px Arial, sans-serif; fill: #0f172a; text-anchor: middle; }
      .actor-sub { font: 400 15px Arial, sans-serif; fill: #475569; text-anchor: middle; }
      .phase-title { font: 700 28px Arial, sans-serif; fill: #0f172a; }
      .phase-sub { font: 400 19px Arial, sans-serif; fill: #475569; }
      .msg { font: 700 16px Arial, sans-serif; fill: #0f172a; text-anchor: middle; }
      .note-title { font: 700 22px Arial, sans-serif; fill: #0f172a; }
      .note { font: 400 18px Arial, sans-serif; fill: #334155; }
      .mono { font: 400 16px Menlo, Consolas, monospace; fill: #334155; }
      .tiny { font: 400 15px Arial, sans-serif; fill: #475569; }
      .phase { fill: #ffffff; fill-opacity: .72; stroke: #e2e8f0; stroke-width: 2; }
      .phase-alt { fill: #f8fafc; fill-opacity: .72; stroke: #e2e8f0; stroke-width: 2; }
      .dev { fill: #f1f5f9; stroke: #64748b; stroke-width: 3; }
      .agent { fill: #e0f2fe; stroke: #0284c7; stroke-width: 3; }
      .hook { fill: #fef3c7; stroke: #d97706; stroke-width: 3; }
      .cli { fill: #ecfeff; stroke: #0891b2; stroke-width: 3; }
      .daemon { fill: #eef2ff; stroke: #4f46e5; stroke-width: 3; }
      .db { fill: #f0fdf4; stroke: #16a34a; stroke-width: 3; }
      .skill { fill: #fae8ff; stroke: #a21caf; stroke-width: 3; }
      .git { fill: #fff7ed; stroke: #ea580c; stroke-width: 3; }
      .gh { fill: #f8fafc; stroke: #0f172a; stroke-width: 3; }
      .orch { fill: #f5f3ff; stroke: #7c3aed; stroke-width: 3; }
      .lifeline { stroke: #cbd5e1; stroke-width: 3; stroke-dasharray: 9 9; }
      .line { stroke: #334155; stroke-width: 3.2; fill: none; marker-end: url(#arrow); }
      .return { stroke: #64748b; stroke-width: 3; fill: none; stroke-dasharray: 8 8; marker-end: url(#arrow); }
      .label-bg { fill: #ffffff; stroke: #e2e8f0; stroke-width: 1.5; }
      .seq { fill: #0f766e; stroke: #ffffff; stroke-width: 3; }
      .seq-text { font: 700 13px Arial, sans-serif; fill: #ffffff; text-anchor: middle; }
      .footer { fill: #f8fafc; stroke: #cbd5e1; stroke-width: 2; }
      .cmd-lane { fill: #faf5ff; stroke: #7c3aed; stroke-width: 3; }
      .cmd-pill { fill: #ffffff; stroke: #7c3aed; stroke-width: 3; }
      .cmd-title { font: 700 20px Arial, sans-serif; fill: #581c87; text-anchor: middle; }
      .cmd-sub { font: 400 15px Arial, sans-serif; fill: #6b21a8; text-anchor: middle; }
      .cmd-dash { stroke: #7c3aed; stroke-width: 3; stroke-dasharray: 8 8; fill: none; }
      .session-lane { fill: #f0f9ff; stroke: #0369a1; stroke-width: 3; }
      .session-one { fill: #ffffff; stroke: #0284c7; stroke-width: 3; }
      .session-two { fill: #ffffff; stroke: #16a34a; stroke-width: 3; }
      .session-title { font: 700 21px Arial, sans-serif; fill: #0f172a; text-anchor: middle; }
      .session-sub { font: 400 16px Arial, sans-serif; fill: #334155; text-anchor: middle; }
      .session-step { font: 700 15px Arial, sans-serif; fill: #0f172a; text-anchor: middle; }
      .session-dash-one { stroke: #0284c7; stroke-width: 3; stroke-dasharray: 8 8; fill: none; }
      .session-dash-two { stroke: #16a34a; stroke-width: 3; stroke-dasharray: 8 8; fill: none; }
    </style>
  </defs>

  <rect width="4420" height="3100" fill="#ffffff"/>

  <text x="80" y="76" class="title">Braid Work Events, Git Notes, and Orchestrator Intent DB</text>
  <text x="80" y="120" class="subtitle">Numbered sequence with local capture, commit/PR/merge note generation, and durable PR-time event storage.</text>

  <!-- Actor header -->
  <rect x="55" y="165" width="210" height="82" rx="12" class="dev"/>
  <text x="160" y="199" class="actor-title">Developer</text>
  <text x="160" y="225" class="actor-sub">drives work through agent</text>

  <rect x="325" y="165" width="210" height="82" rx="12" class="agent"/>
  <text x="430" y="199" class="actor-title">Agent</text>
  <text x="430" y="225" class="actor-sub">Claude Code / Codex</text>

  <rect x="595" y="165" width="210" height="82" rx="12" class="hook"/>
  <text x="700" y="199" class="actor-title">Hooks</text>
  <text x="700" y="225" class="actor-sub">lifecycle triggers</text>

  <rect x="865" y="165" width="210" height="82" rx="12" class="cli"/>
  <text x="970" y="199" class="actor-title">Braid CLI</text>
  <text x="970" y="225" class="actor-sub">work-event client</text>

  <rect x="1110" y="165" width="260" height="82" rx="12" class="daemon"/>
  <text x="1240" y="199" class="actor-title">Local Braid Daemon</text>
  <text x="1240" y="225" class="actor-sub">gRPC + validation</text>

  <rect x="1405" y="165" width="210" height="82" rx="12" class="db"/>
  <text x="1510" y="199" class="actor-title">Inbox</text>
  <text x="1510" y="225" class="actor-sub">local filestore</text>

  <rect x="1675" y="165" width="210" height="82" rx="12" class="db"/>
  <text x="1780" y="199" class="actor-title">Local SQLite</text>
  <text x="1780" y="225" class="actor-sub">raw events and braid record</text>

  <rect x="1915" y="165" width="270" height="82" rx="12" class="skill"/>
  <text x="2050" y="199" class="actor-title">Braid Git Note Skill</text>
  <text x="2050" y="225" class="actor-sub">agent synthesis</text>

  <rect x="2215" y="165" width="210" height="82" rx="12" class="git"/>
  <text x="2320" y="199" class="actor-title">Git Repo</text>
  <text x="2320" y="225" class="actor-sub">commits + notes</text>

  <rect x="2485" y="165" width="210" height="82" rx="12" class="gh"/>
  <text x="2590" y="199" class="actor-title">GitHub PR</text>
  <text x="2590" y="225" class="actor-sub">review boundary</text>

  <rect x="2755" y="165" width="210" height="82" rx="12" class="orch"/>
  <text x="2860" y="199" class="actor-title">Orchestrator</text>
  <text x="2860" y="225" class="actor-sub">remote authority</text>

  <rect x="3025" y="165" width="210" height="82" rx="12" class="db"/>
  <text x="3130" y="199" class="actor-title">Intent DB</text>
  <text x="3130" y="225" class="actor-sub">durable events and braids</text>

  <!-- Lifelines -->
  <line x1="160" y1="265" x2="160" y2="2935" class="lifeline"/>
  <line x1="430" y1="265" x2="430" y2="2935" class="lifeline"/>
  <line x1="700" y1="265" x2="700" y2="2935" class="lifeline"/>
  <line x1="970" y1="265" x2="970" y2="2935" class="lifeline"/>
  <line x1="1240" y1="265" x2="1240" y2="2935" class="lifeline"/>
  <line x1="1510" y1="265" x2="1510" y2="2935" class="lifeline"/>
  <line x1="1780" y1="265" x2="1780" y2="2935" class="lifeline"/>
  <line x1="2050" y1="265" x2="2050" y2="2935" class="lifeline"/>
  <line x1="2320" y1="265" x2="2320" y2="2935" class="lifeline"/>
  <line x1="2590" y1="265" x2="2590" y2="2935" class="lifeline"/>
  <line x1="2860" y1="265" x2="2860" y2="2935" class="lifeline"/>
  <line x1="3130" y1="265" x2="3130" y2="2935" class="lifeline"/>

  <!-- Phase 1 -->
  <rect x="55" y="300" width="3260" height="345" rx="16" class="phase-alt"/>
  <text x="85" y="342" class="phase-title">1. Local Work-Event Capture</text>
  <text x="85" y="374" class="phase-sub">Agent activity becomes WorkEvent records through hooks and Braid CLI. The daemon writes captured events into Inbox before attach.</text>

  <line x1="160" y1="425" x2="430" y2="425" class="line"/>
  <circle cx="275" cy="425" r="17" class="seq"/><text x="275" y="430" class="seq-text">01</text>
  <rect x="300" y="385" width="90" height="28" rx="6" class="label-bg"/><text x="345" y="405" class="msg">start</text>

  <line x1="430" y1="475" x2="700" y2="475" class="line"/>
  <circle cx="535" cy="475" r="17" class="seq"/><text x="535" y="480" class="seq-text">02</text>
  <rect x="562" y="435" width="120" height="28" rx="6" class="label-bg"/><text x="622" y="455" class="msg">work event</text>

  <line x1="700" y1="525" x2="970" y2="525" class="line"/>
  <circle cx="805" cy="525" r="17" class="seq"/><text x="805" y="530" class="seq-text">03</text>
  <rect x="827" y="485" width="170" height="28" rx="6" class="label-bg"/><text x="912" y="505" class="msg">call Braid CLI</text>

  <line x1="970" y1="575" x2="1240" y2="575" class="line"/>
  <circle cx="1075" cy="575" r="17" class="seq"/><text x="1075" y="580" class="seq-text">04</text>
  <rect x="1096" y="535" width="184" height="28" rx="6" class="label-bg"/><text x="1188" y="555" class="msg">gRPC WorkEvent</text>

  <line x1="1240" y1="625" x2="1510" y2="625" class="line"/>
  <circle cx="1345" cy="625" r="17" class="seq"/><text x="1345" y="630" class="seq-text">05</text>
  <rect x="1352" y="585" width="190" height="28" rx="6" class="label-bg"/><text x="1447" y="605" class="msg">write Inbox file</text>

  <rect x="2030" y="438" width="1030" height="118" rx="12" class="daemon"/>
  <text x="2060" y="475" class="note-title">Local Braid daemon contract</text>
  <text x="2060" y="507" class="note">Validate shape, assign canonical sequence, dedupe retries, and persist captured work events into Inbox.</text>
  <text x="2060" y="537" class="note">Earlier events are not edited; corrections are new events.</text>

  <!-- Phase 2 -->
  <rect x="55" y="685" width="3260" height="585" rx="16" class="phase"/>
  <text x="85" y="727" class="phase-title">2. Commit Boundary: Commit Git Note</text>
  <text x="85" y="759" class="phase-sub">A commit anchors a stable Git object. braid attach drains the Inbox work-event slice into braid/thread state, then a curated note can be written.</text>

  <line x1="430" y1="820" x2="2320" y2="820" class="line"/>
  <circle cx="1195" cy="820" r="17" class="seq"/><text x="1195" y="825" class="seq-text">06</text>
  <rect x="1225" y="780" width="150" height="28" rx="6" class="label-bg"/><text x="1300" y="800" class="msg">create commit</text>

  <line x1="2320" y1="870" x2="700" y2="870" class="line"/>
  <circle cx="1430" cy="870" r="17" class="seq"/><text x="1430" y="875" class="seq-text">07</text>
  <rect x="1465" y="830" width="160" height="28" rx="6" class="label-bg"/><text x="1545" y="850" class="msg">post-commit</text>

  <line x1="700" y1="920" x2="970" y2="920" class="line"/>
  <circle cx="805" cy="920" r="17" class="seq"/><text x="805" y="925" class="seq-text">08</text>
  <rect x="828" y="880" width="190" height="28" rx="6" class="label-bg"/><text x="923" y="900" class="msg">commit.created</text>

  <line x1="970" y1="970" x2="1240" y2="970" class="line"/>
  <circle cx="1075" cy="970" r="17" class="seq"/><text x="1075" y="975" class="seq-text">09</text>
  <rect x="1096" y="930" width="184" height="28" rx="6" class="label-bg"/><text x="1188" y="950" class="msg">gRPC WorkEvent</text>

  <line x1="1240" y1="1020" x2="1510" y2="1020" class="line"/>
  <circle cx="1345" cy="1020" r="17" class="seq"/><text x="1345" y="1025" class="seq-text">10</text>
  <rect x="1355" y="980" width="228" height="28" rx="6" class="label-bg"/><text x="1469" y="1000" class="msg">commit event to Inbox</text>

  <line x1="1240" y1="1070" x2="1510" y2="1070" class="line"/>
  <circle cx="1345" cy="1070" r="17" class="seq"/><text x="1345" y="1075" class="seq-text">11</text>
  <rect x="1342" y="1030" width="240" height="28" rx="6" class="label-bg"/><text x="1462" y="1050" class="msg">query Inbox workevent slice</text>

  <line x1="1510" y1="1095" x2="1780" y2="1095" class="line"/>
  <rect x="1544" y="1066" width="202" height="28" rx="6" class="label-bg"/><text x="1645" y="1086" class="msg">attach folds to SQLite</text>

  <line x1="1240" y1="1120" x2="2050" y2="1120" class="line"/>
  <circle cx="1475" cy="1120" r="17" class="seq"/><text x="1475" y="1125" class="seq-text">12</text>
  <rect x="1780" y="1080" width="200" height="28" rx="6" class="label-bg"/><text x="1880" y="1100" class="msg">synthesize note</text>

  <line x1="2050" y1="1170" x2="1240" y2="1170" class="return"/>
  <circle cx="1510" cy="1170" r="17" class="seq"/><text x="1510" y="1175" class="seq-text">13</text>
  <rect x="1540" y="1130" width="160" height="28" rx="6" class="label-bg"/><text x="1620" y="1150" class="msg">commit note</text>

  <line x1="1240" y1="1220" x2="2320" y2="1220" class="line"/>
  <circle cx="1600" cy="1220" r="17" class="seq"/><text x="1600" y="1225" class="seq-text">14</text>
  <rect x="1898" y="1180" width="190" height="28" rx="6" class="label-bg"/><text x="1993" y="1200" class="msg">write git note</text>

  <rect x="2470" y="1020" width="620" height="105" rx="12" class="git"/>
  <text x="2500" y="1056" class="note-title">Commit git note namespace</text>
  <text x="2500" y="1087" class="mono">refs/notes/agent-commit</text>

  <!-- Phase 3 -->
  <rect x="55" y="1310" width="3260" height="735" rx="16" class="phase-alt"/>
  <text x="85" y="1352" class="phase-title">3. PR Boundary: Reviewable Intent</text>
  <text x="85" y="1384" class="phase-sub">The PR is the durability boundary: before PR, SQLite is source of truth; after PR, braid/thread records, raw stamped events, PR ids, Git SHAs, and changed-intent deltas live in Intent DB.</text>

  <rect x="2470" y="1328" width="620" height="92" rx="12" class="git"/>
  <text x="2500" y="1363" class="note-title">PR/head git note namespace</text>
  <text x="2500" y="1394" class="mono">refs/notes/agent-pr</text>

  <line x1="430" y1="1445" x2="2590" y2="1445" class="line"/>
  <circle cx="1195" cy="1445" r="17" class="seq"/><text x="1195" y="1450" class="seq-text">15</text>
  <rect x="1190" y="1405" width="180" height="28" rx="6" class="label-bg"/><text x="1280" y="1425" class="msg">agent raises PR</text>

  <line x1="2590" y1="1495" x2="700" y2="1495" class="line"/>
  <circle cx="1580" cy="1495" r="17" class="seq"/><text x="1580" y="1500" class="seq-text">16</text>
  <rect x="1880" y="1455" width="130" height="28" rx="6" class="label-bg"/><text x="1945" y="1475" class="msg">pr.created</text>

  <line x1="700" y1="1545" x2="970" y2="1545" class="line"/>
  <circle cx="805" cy="1545" r="17" class="seq"/><text x="805" y="1550" class="seq-text">17</text>
  <rect x="828" y="1505" width="205" height="28" rx="6" class="label-bg"/><text x="930" y="1525" class="msg">pr.created event</text>

  <line x1="970" y1="1595" x2="1240" y2="1595" class="line"/>
  <circle cx="1075" cy="1595" r="17" class="seq"/><text x="1075" y="1600" class="seq-text">18</text>
  <rect x="1096" y="1555" width="184" height="28" rx="6" class="label-bg"/><text x="1188" y="1575" class="msg">gRPC WorkEvent</text>

  <line x1="1240" y1="1645" x2="1780" y2="1645" class="line"/>
  <circle cx="1345" cy="1645" r="17" class="seq"/><text x="1345" y="1650" class="seq-text">19</text>
  <rect x="1530" y="1605" width="190" height="28" rx="6" class="label-bg"/><text x="1625" y="1625" class="msg">PR checkpoint</text>

  <line x1="1780" y1="1695" x2="2860" y2="1695" class="line"/>
  <circle cx="2250" cy="1695" r="17" class="seq"/><text x="2250" y="1700" class="seq-text">20</text>
  <rect x="2058" y="1655" width="385" height="28" rx="6" class="label-bg"/><text x="2250" y="1675" class="msg">drain braid/thread/git refs/raw</text>

  <line x1="2860" y1="1745" x2="3130" y2="1745" class="line"/>
  <circle cx="2965" cy="1745" r="17" class="seq"/><text x="2965" y="1750" class="seq-text">21</text>
  <rect x="2928" y="1705" width="285" height="28" rx="6" class="label-bg"/><text x="3070" y="1725" class="msg">store events, braids, SHAs</text>

  <line x1="3130" y1="1795" x2="2860" y2="1795" class="return"/>
  <circle cx="3005" cy="1795" r="17" class="seq"/><text x="3005" y="1800" class="seq-text">22</text>
  <rect x="2875" y="1755" width="175" height="28" rx="6" class="label-bg"/><text x="2962" y="1775" class="msg">URI + digest</text>

  <line x1="2860" y1="1845" x2="1240" y2="1845" class="return"/>
  <circle cx="2170" cy="1845" r="17" class="seq"/><text x="2170" y="1850" class="seq-text">23</text>
  <rect x="2200" y="1805" width="230" height="28" rx="6" class="label-bg"/><text x="2315" y="1825" class="msg">durable pointer</text>

  <line x1="1240" y1="1895" x2="2050" y2="1895" class="line"/>
  <circle cx="1475" cy="1895" r="17" class="seq"/><text x="1475" y="1900" class="seq-text">24</text>
  <rect x="1498" y="1855" width="205" height="28" rx="6" class="label-bg"/><text x="1600" y="1875" class="msg">generate summary</text>

  <line x1="2050" y1="1945" x2="1240" y2="1945" class="return"/>
  <circle cx="1510" cy="1945" r="17" class="seq"/><text x="1510" y="1950" class="seq-text">25</text>
  <rect x="1538" y="1905" width="180" height="28" rx="6" class="label-bg"/><text x="1628" y="1925" class="msg">PR intent</text>

  <line x1="1240" y1="1995" x2="2590" y2="1995" class="line"/>
  <circle cx="2005" cy="1995" r="17" class="seq"/><text x="2005" y="2000" class="seq-text">26</text>
  <rect x="2024" y="1955" width="290" height="28" rx="6" class="label-bg"/><text x="2169" y="1975" class="msg">update PR + changed intent</text>

  <line x1="1240" y1="2035" x2="2320" y2="2035" class="line"/>
  <rect x="1885" y="2007" width="232" height="28" rx="6" class="label-bg"/><text x="2001" y="2027" class="msg">write PR/head note</text>

  <rect x="2470" y="1860" width="620" height="108" rx="12" class="orch"/>
  <text x="2500" y="1895" class="note-title">PR change loop</text>
  <text x="2500" y="1925" class="tiny">PR commits, body/comment edits, review replies, or scope changes</text>
  <text x="2500" y="1955" class="tiny">emit changed-intent deltas into Intent DB before merge.</text>

  <!-- Phase 4 -->
  <rect x="55" y="2105" width="3260" height="825" rx="16" class="phase"/>
  <text x="85" y="2147" class="phase-title">4. Merge Boundary: Promote Status + Merge Note</text>
  <text x="85" y="2179" class="phase-sub">After PR, Intent DB is source of truth. Merge drains remaining events plus merge SHA, queries Intent DB, updates promote status, and writes the merge note.</text>

  <rect x="2470" y="2125" width="620" height="92" rx="12" class="git"/>
  <text x="2500" y="2160" class="note-title">Merge git note namespace</text>
  <text x="2500" y="2191" class="mono">refs/notes/agent-merge</text>

  <line x1="430" y1="2240" x2="2590" y2="2240" class="line"/>
  <circle cx="1195" cy="2240" r="17" class="seq"/><text x="1195" y="2245" class="seq-text">27</text>
  <rect x="1190" y="2200" width="180" height="28" rx="6" class="label-bg"/><text x="1280" y="2220" class="msg">agent merges PR</text>

  <line x1="2590" y1="2290" x2="700" y2="2290" class="line"/>
  <circle cx="1580" cy="2290" r="17" class="seq"/><text x="1580" y="2295" class="seq-text">28</text>
  <rect x="1878" y="2250" width="180" height="28" rx="6" class="label-bg"/><text x="1968" y="2270" class="msg">merge.completed</text>

  <line x1="700" y1="2340" x2="970" y2="2340" class="line"/>
  <circle cx="805" cy="2340" r="17" class="seq"/><text x="805" y="2345" class="seq-text">29</text>
  <rect x="828" y="2300" width="205" height="28" rx="6" class="label-bg"/><text x="930" y="2320" class="msg">merge.completed</text>

  <line x1="970" y1="2390" x2="1240" y2="2390" class="line"/>
  <circle cx="1075" cy="2390" r="17" class="seq"/><text x="1075" y="2395" class="seq-text">30</text>
  <rect x="1096" y="2350" width="184" height="28" rx="6" class="label-bg"/><text x="1188" y="2370" class="msg">gRPC WorkEvent</text>

  <line x1="1240" y1="2440" x2="3130" y2="2440" class="line"/>
  <circle cx="2250" cy="2440" r="17" class="seq"/><text x="2250" y="2445" class="seq-text">31</text>
  <rect x="2188" y="2400" width="375" height="28" rx="6" class="label-bg"/><text x="2375" y="2420" class="msg">drain final events + merge SHA</text>

  <line x1="1240" y1="2490" x2="3130" y2="2490" class="line"/>
  <circle cx="2250" cy="2490" r="17" class="seq"/><text x="2250" y="2495" class="seq-text">32</text>
  <rect x="2210" y="2450" width="305" height="28" rx="6" class="label-bg"/><text x="2362" y="2470" class="msg">query Intent DB truth</text>

  <line x1="1240" y1="2540" x2="2860" y2="2540" class="line"/>
  <circle cx="2125" cy="2540" r="17" class="seq"/><text x="2125" y="2545" class="seq-text">33</text>
  <rect x="2140" y="2500" width="245" height="28" rx="6" class="label-bg"/><text x="2262" y="2520" class="msg">mark promoted braid</text>

  <line x1="2860" y1="2590" x2="3130" y2="2590" class="line"/>
  <circle cx="2965" cy="2590" r="17" class="seq"/><text x="2965" y="2595" class="seq-text">34</text>
  <rect x="2904" y="2550" width="330" height="28" rx="6" class="label-bg"/><text x="3070" y="2570" class="msg">store merge SHA + promote status</text>

  <line x1="3130" y1="2640" x2="2860" y2="2640" class="return"/>
  <circle cx="3005" cy="2640" r="17" class="seq"/><text x="3005" y="2645" class="seq-text">35</text>
  <rect x="2840" y="2600" width="230" height="28" rx="6" class="label-bg"/><text x="2955" y="2620" class="msg">updated URI + digest</text>

  <line x1="2860" y1="2690" x2="1240" y2="2690" class="return"/>
  <circle cx="2170" cy="2690" r="17" class="seq"/><text x="2170" y="2695" class="seq-text">36</text>
  <rect x="2200" y="2650" width="250" height="28" rx="6" class="label-bg"/><text x="2325" y="2670" class="msg">promote pointer</text>

  <line x1="1240" y1="2740" x2="2050" y2="2740" class="line"/>
  <circle cx="1475" cy="2740" r="17" class="seq"/><text x="1475" y="2745" class="seq-text">37</text>
  <rect x="1500" y="2700" width="210" height="28" rx="6" class="label-bg"/><text x="1605" y="2720" class="msg">merge-note skill</text>

  <line x1="2050" y1="2790" x2="1240" y2="2790" class="return"/>
  <circle cx="1510" cy="2790" r="17" class="seq"/><text x="1510" y="2795" class="seq-text">38</text>
  <rect x="1538" y="2750" width="180" height="28" rx="6" class="label-bg"/><text x="1628" y="2770" class="msg">merge note</text>

  <line x1="1240" y1="2840" x2="2320" y2="2840" class="line"/>
  <circle cx="1600" cy="2840" r="17" class="seq"/><text x="1600" y="2845" class="seq-text">39</text>
  <rect x="1898" y="2800" width="194" height="28" rx="6" class="label-bg"/><text x="1995" y="2820" class="msg">write merge note</text>

  <line x1="2320" y1="2890" x2="2590" y2="2890" class="line"/>
  <circle cx="2425" cy="2890" r="17" class="seq"/><text x="2425" y="2895" class="seq-text">40</text>
  <rect x="2450" y="2850" width="170" height="28" rx="6" class="label-bg"/><text x="2535" y="2870" class="msg">push notes refs</text>

  <!-- Braid command overlay -->
  <rect x="3365" y="300" width="450" height="2630" rx="18" class="cmd-lane"/>
  <text x="3590" y="342" class="phase-title" text-anchor="middle">Braid Lifecycle Commands</text>
  <text x="3590" y="374" class="phase-sub" text-anchor="middle">Current session owns claim through promote</text>

  <line x1="3315" y1="425" x2="3400" y2="425" class="cmd-dash"/>
  <rect x="3400" y="390" width="380" height="92" rx="14" class="cmd-pill"/>
  <text x="3590" y="420" class="cmd-title">braid claim / start</text>
  <text x="3590" y="448" class="cmd-sub">sets goal, braid intent, optional scope</text>
  <text x="3590" y="472" class="cmd-sub">before step 01</text>

  <line x1="3315" y1="525" x2="3400" y2="525" class="cmd-dash"/>
  <rect x="3400" y="500" width="380" height="92" rx="14" class="cmd-pill"/>
  <text x="3590" y="530" class="cmd-title">braid wrap optional</text>
  <text x="3590" y="558" class="cmd-sub">sub-agents + hooks capture to Inbox</text>
  <text x="3590" y="582" class="cmd-sub">wrap-equivalent, steps 02-05</text>

  <line x1="3315" y1="1020" x2="3400" y2="1020" class="cmd-dash"/>
  <rect x="3400" y="985" width="380" height="92" rx="14" class="cmd-pill"/>
  <text x="3590" y="1015" class="cmd-title">braid attach</text>
  <text x="3590" y="1043" class="cmd-sub">drains Inbox into braid/thread record</text>
  <text x="3590" y="1067" class="cmd-sub">steps 06-14</text>

  <line x1="3315" y1="1645" x2="3400" y2="1645" class="cmd-dash"/>
  <rect x="3400" y="1610" width="380" height="92" rx="14" class="cmd-pill"/>
  <text x="3590" y="1640" class="cmd-title">braid review</text>
  <text x="3590" y="1668" class="cmd-sub">surfaces intent and captures deltas</text>
  <text x="3590" y="1692" class="cmd-sub">steps 15-26</text>

  <line x1="3315" y1="2540" x2="3400" y2="2540" class="cmd-dash"/>
  <rect x="3400" y="2505" width="380" height="92" rx="14" class="cmd-pill"/>
  <text x="3590" y="2535" class="cmd-title">braid promote</text>
  <text x="3590" y="2563" class="cmd-sub">drains final events + merge SHA</text>
  <text x="3590" y="2587" class="cmd-sub">steps 27-40</text>

  <!-- Agent session overlay -->
  <rect x="3855" y="300" width="500" height="2630" rx="18" class="session-lane"/>
  <text x="4105" y="342" class="phase-title" text-anchor="middle">Agent Sessions Overlay</text>
  <text x="4105" y="374" class="phase-sub" text-anchor="middle">Current session spawns two sub-agent sessions</text>

  <line x1="3815" y1="525" x2="3880" y2="525" class="session-dash-one"/>
  <line x1="3815" y1="1020" x2="3880" y2="1020" class="session-dash-one"/>
  <rect x="3880" y="430" width="450" height="230" rx="16" class="session-one"/>
  <text x="4105" y="468" class="session-title">Sub-agent 1 / Thread 1</text>
  <text x="4105" y="498" class="session-sub">spawned by current session</text>
  <text x="4105" y="528" class="session-sub">scope: services/catalog/*</text>
  <text x="4105" y="574" class="session-step">hooks capture to Inbox -> commit -> attach</text>
  <text x="4105" y="604" class="session-sub">backend catalog core; first thread</text>
  <text x="4105" y="634" class="session-sub">anchors to steps 02-14</text>

  <line x1="3815" y1="815" x2="3880" y2="815" class="session-dash-two"/>
  <line x1="3815" y1="920" x2="3880" y2="920" class="session-dash-two"/>
  <rect x="3880" y="720" width="450" height="230" rx="16" class="session-two"/>
  <text x="4105" y="758" class="session-title">Sub-agent 2 / Thread 2</text>
  <text x="4105" y="788" class="session-sub">spawned by current session</text>
  <text x="4105" y="818" class="session-sub">scope: web/catalog-console/*</text>
  <text x="4105" y="864" class="session-step">hooks capture to Inbox -> commit -> attach --braid</text>
  <text x="4105" y="894" class="session-sub">frontend console; joins same braid</text>
  <text x="4105" y="924" class="session-sub">anchors to steps 02-14</text>

  <rect x="3880" y="1565" width="450" height="155" rx="16" class="session-one"/>
  <text x="4105" y="1605" class="session-title">Shared Review</text>
  <text x="4105" y="1637" class="session-sub">both attached threads are reviewed</text>
  <text x="4105" y="1667" class="session-sub">later PR changes capture intent deltas</text>
  <text x="4105" y="1697" class="session-sub">anchors to steps 15-26</text>

  <rect x="3880" y="2470" width="450" height="155" rx="16" class="session-two"/>
  <text x="4105" y="2510" class="session-title">Shared Promote</text>
  <text x="4105" y="2542" class="session-sub">remaining events + merge SHA drain</text>
  <text x="4105" y="2572" class="session-sub">Intent DB is queried for truth</text>
  <text x="4105" y="2602" class="session-sub">anchors to steps 27-40</text>

  <!-- Footer / explanation -->
  <rect x="55" y="2970" width="4300" height="88" rx="12" class="footer"/>
  <text x="85" y="3005" class="note-title">Storage model</text>
  <text x="310" y="3005" class="note">Inbox is the pre-attach local FileStore. Before PR, Local SQLite is source of truth. PR drains braid/thread/raw stamped events plus Git refs and commit/head SHAs into Intent DB; every later PR change adds a changed-intent delta; merge drains the final delta plus merge SHA.</text>
</svg>
