<svg xmlns="http://www.w3.org/2000/svg" width="2480" height="1760" viewBox="0 0 2480 1760" role="img" aria-labelledby="title desc">
  <title id="title">Commit / Session Boundary</title>
  <desc id="desc">Local work events become a commit-scoped braid record and a commit git note without leaving local truth.</desc>
  <defs>
    <marker id="arrow" markerWidth="14" markerHeight="14" refX="12" refY="7" orient="auto" markerUnits="strokeWidth">
      <path d="M2,2 L12,7 L2,12 Z" fill="#334155"/>
    </marker>
    <marker id="arrow-return" markerWidth="14" markerHeight="14" refX="12" refY="7" orient="auto" markerUnits="strokeWidth">
      <path d="M2,2 L12,7 L2,12 Z" fill="#64748b"/>
    </marker>
  </defs>
  <rect width="100%" height="100%" fill="#ffffff"/>
  <text x="64" y="72" font-size="38" font-weight="700" fill="#0f172a">Commit / Session Boundary</text>
  <text x="64" y="110" font-size="21" font-weight="500" fill="#475569">Local work events become a commit-scoped braid record and a commit git note without leaving local truth.</text>
  <line x1="60" y1="128" x2="2420" y2="128" stroke="#cbd5e1" stroke-width="2" stroke-dasharray="10 10"/>

  
    <rect x="35" y="145" width="190" height="68" rx="12" fill="#f8fafc" stroke="#cbd5e1" stroke-width="2"/>
    <text x="130" y="173" text-anchor="middle" font-size="17" font-weight="500" fill="#0f172a"><tspan x="130" dy="0">Agent Session</tspan></text>
  

    <rect x="352.14285714285717" y="145" width="190" height="68" rx="12" fill="#f8fafc" stroke="#cbd5e1" stroke-width="2"/>
    <text x="447.14285714285717" y="173" text-anchor="middle" font-size="17" font-weight="500" fill="#0f172a"><tspan x="447.14285714285717" dy="0">Hooks</tspan></text>
  

    <rect x="669.2857142857143" y="145" width="190" height="68" rx="12" fill="#f8fafc" stroke="#cbd5e1" stroke-width="2"/>
    <text x="764.2857142857143" y="173" text-anchor="middle" font-size="17" font-weight="500" fill="#0f172a"><tspan x="764.2857142857143" dy="0">Braid CLI</tspan></text>
  

    <rect x="986.4285714285716" y="145" width="190" height="68" rx="12" fill="#f8fafc" stroke="#cbd5e1" stroke-width="2"/>
    <text x="1081.4285714285716" y="173" text-anchor="middle" font-size="17" font-weight="500" fill="#0f172a"><tspan x="1081.4285714285716" dy="0">Local Braid Daemon</tspan></text>
  

    <rect x="1303.5714285714287" y="145" width="190" height="68" rx="12" fill="#f8fafc" stroke="#cbd5e1" stroke-width="2"/>
    <text x="1398.5714285714287" y="173" text-anchor="middle" font-size="17" font-weight="500" fill="#0f172a"><tspan x="1398.5714285714287" dy="0">Inbox FileStore</tspan></text>
  

    <rect x="1620.7142857142858" y="145" width="190" height="68" rx="12" fill="#f8fafc" stroke="#cbd5e1" stroke-width="2"/>
    <text x="1715.7142857142858" y="173" text-anchor="middle" font-size="17" font-weight="500" fill="#0f172a"><tspan x="1715.7142857142858" dy="0">Local SQLite</tspan></text>
  

    <rect x="1937.8571428571431" y="145" width="190" height="68" rx="12" fill="#f8fafc" stroke="#cbd5e1" stroke-width="2"/>
    <text x="2032.8571428571431" y="173" text-anchor="middle" font-size="17" font-weight="500" fill="#0f172a"><tspan x="2032.8571428571431" dy="0">Braid Git Note</tspan><tspan x="2032.8571428571431" dy="20">Skill</tspan></text>
  

    <rect x="2255" y="145" width="190" height="68" rx="12" fill="#f8fafc" stroke="#cbd5e1" stroke-width="2"/>
    <text x="2350" y="173" text-anchor="middle" font-size="17" font-weight="500" fill="#0f172a"><tspan x="2350" dy="0">Commit Git Note</tspan><tspan x="2350" dy="20">Namespace</tspan></text>
  
  <line x1="130" y1="224" x2="130" y2="1400" stroke="#cbd5e1" stroke-width="2" stroke-dasharray="8 10"/>
<line x1="447.14285714285717" y1="224" x2="447.14285714285717" y2="1400" stroke="#cbd5e1" stroke-width="2" stroke-dasharray="8 10"/>
<line x1="764.2857142857143" y1="224" x2="764.2857142857143" y2="1400" stroke="#cbd5e1" stroke-width="2" stroke-dasharray="8 10"/>
<line x1="1081.4285714285716" y1="224" x2="1081.4285714285716" y2="1400" stroke="#cbd5e1" stroke-width="2" stroke-dasharray="8 10"/>
<line x1="1398.5714285714287" y1="224" x2="1398.5714285714287" y2="1400" stroke="#cbd5e1" stroke-width="2" stroke-dasharray="8 10"/>
<line x1="1715.7142857142858" y1="224" x2="1715.7142857142858" y2="1400" stroke="#cbd5e1" stroke-width="2" stroke-dasharray="8 10"/>
<line x1="2032.8571428571431" y1="224" x2="2032.8571428571431" y2="1400" stroke="#cbd5e1" stroke-width="2" stroke-dasharray="8 10"/>
<line x1="2350" y1="224" x2="2350" y2="1400" stroke="#cbd5e1" stroke-width="2" stroke-dasharray="8 10"/>

  
    <g>
      <rect x="222.57142857142856" y="224" width="132" height="48" rx="8" fill="#ffffff" opacity="0.96"/>
      <text x="288.57142857142856" y="241" text-anchor="middle" font-size="14" font-weight="500" fill="#1e293b"><tspan x="288.57142857142856" dy="0">session emits</tspan><tspan x="288.57142857142856" dy="18">WorkEvents</tspan></text>
      <line x1="174" y1="285" x2="403.14285714285717" y2="285" stroke="#334155" stroke-width="2.4"  marker-end="url(#arrow)"/>
      <circle cx="198" cy="285" r="16" fill="#0f766e" stroke="#ffffff" stroke-width="3"/>
      <text x="198" y="290" text-anchor="middle" font-size="13" font-weight="700" fill="#ffffff">1</text>
    </g>
  

    <g>
      <rect x="531.7142857142858" y="309" width="148" height="48" rx="8" fill="#ffffff" opacity="0.96"/>
      <text x="605.7142857142858" y="326" text-anchor="middle" font-size="14" font-weight="500" fill="#1e293b"><tspan x="605.7142857142858" dy="0">work event +</tspan><tspan x="605.7142857142858" dy="18">idempotency key</tspan></text>
      <line x1="491.14285714285717" y1="370" x2="720.2857142857143" y2="370" stroke="#334155" stroke-width="2.4"  marker-end="url(#arrow)"/>
      <circle cx="515.1428571428571" cy="370" r="16" fill="#0f766e" stroke="#ffffff" stroke-width="3"/>
      <text x="515.1428571428571" y="375" text-anchor="middle" font-size="13" font-weight="700" fill="#ffffff">2</text>
    </g>
  

    <g>
      <rect x="852.8571428571429" y="402" width="140" height="28" rx="8" fill="#ffffff" opacity="0.96"/>
      <text x="922.8571428571429" y="419" text-anchor="middle" font-size="14" font-weight="500" fill="#1e293b"><tspan x="922.8571428571429" dy="0">gRPC WorkEvent</tspan></text>
      <line x1="808.2857142857143" y1="455" x2="1037.4285714285716" y2="455" stroke="#334155" stroke-width="2.4"  marker-end="url(#arrow)"/>
      <circle cx="832.2857142857143" cy="455" r="16" fill="#0f766e" stroke="#ffffff" stroke-width="3"/>
      <text x="832.2857142857143" y="460" text-anchor="middle" font-size="13" font-weight="700" fill="#ffffff">3</text>
    </g>
  

    <g>
      <rect x="1140.4285714285716" y="479" width="199.1428571428571" height="48" rx="8" fill="#ffffff" opacity="0.96"/>
      <text x="1240" y="496" text-anchor="middle" font-size="14" font-weight="500" fill="#1e293b"><tspan x="1240" dy="0">append raw event, seq,</tspan><tspan x="1240" dy="18">digest</tspan></text>
      <line x1="1125.4285714285716" y1="540" x2="1354.5714285714287" y2="540" stroke="#334155" stroke-width="2.4"  marker-end="url(#arrow)"/>
      <circle cx="1149.4285714285716" cy="540" r="16" fill="#0f766e" stroke="#ffffff" stroke-width="3"/>
      <text x="1149.4285714285716" y="545" text-anchor="middle" font-size="13" font-weight="700" fill="#ffffff">4</text>
    </g>
  

    <g>
      <rect x="202.57142857142856" y="572" width="172" height="28" rx="8" fill="#ffffff" opacity="0.96"/>
      <text x="288.57142857142856" y="589" text-anchor="middle" font-size="14" font-weight="500" fill="#1e293b"><tspan x="288.57142857142856" dy="0">git commit created</tspan></text>
      <line x1="174" y1="625" x2="403.14285714285717" y2="625" stroke="#334155" stroke-width="2.4"  marker-end="url(#arrow)"/>
      <circle cx="198" cy="625" r="16" fill="#0f766e" stroke="#ffffff" stroke-width="3"/>
      <text x="198" y="630" text-anchor="middle" font-size="13" font-weight="700" fill="#ffffff">5</text>
    </g>
  

    <g>
      <rect x="535.7142857142858" y="649" width="140" height="48" rx="8" fill="#ffffff" opacity="0.96"/>
      <text x="605.7142857142858" y="666" text-anchor="middle" font-size="14" font-weight="500" fill="#1e293b"><tspan x="605.7142857142858" dy="0">commit.created</tspan><tspan x="605.7142857142858" dy="18">WorkEvent</tspan></text>
      <line x1="491.14285714285717" y1="710" x2="720.2857142857143" y2="710" stroke="#334155" stroke-width="2.4"  marker-end="url(#arrow)"/>
      <circle cx="515.1428571428571" cy="710" r="16" fill="#0f766e" stroke="#ffffff" stroke-width="3"/>
      <text x="515.1428571428571" y="715" text-anchor="middle" font-size="13" font-weight="700" fill="#ffffff">6</text>
    </g>
  

    <g>
      <rect x="317.14285714285717" y="742" width="260" height="28" rx="8" fill="#ffffff" opacity="0.96"/>
      <text x="447.14285714285717" y="759" text-anchor="middle" font-size="14" font-weight="500" fill="#1e293b"><tspan x="447.14285714285717" dy="0">braid attach for braid/thread</tspan></text>
      <line x1="174" y1="795" x2="720.2857142857143" y2="795" stroke="#334155" stroke-width="2.4"  marker-end="url(#arrow)"/>
      <circle cx="198" cy="795" r="16" fill="#0f766e" stroke="#ffffff" stroke-width="3"/>
      <text x="198" y="800" text-anchor="middle" font-size="13" font-weight="700" fill="#ffffff">7</text>
    </g>
  

    <g>
      <rect x="1142" y="827" width="196" height="28" rx="8" fill="#ffffff" opacity="0.96"/>
      <text x="1240" y="844" text-anchor="middle" font-size="14" font-weight="500" fill="#1e293b"><tspan x="1240" dy="0">query workevent slice</tspan></text>
      <line x1="1125.4285714285716" y1="880" x2="1354.5714285714287" y2="880" stroke="#334155" stroke-width="2.4"  marker-end="url(#arrow)"/>
      <circle cx="1149.4285714285716" cy="880" r="16" fill="#0f766e" stroke="#ffffff" stroke-width="3"/>
      <text x="1149.4285714285716" y="885" text-anchor="middle" font-size="13" font-weight="700" fill="#ffffff">8</text>
    </g>
  

    <g>
      <rect x="1256.5714285714287" y="912" width="284" height="28" rx="8" fill="#ffffff" opacity="0.96"/>
      <text x="1398.5714285714287" y="929" text-anchor="middle" font-size="14" font-weight="500" fill="#1e293b"><tspan x="1398.5714285714287" dy="0">transaction: stamp, redact, fold</tspan></text>
      <line x1="1125.4285714285716" y1="965" x2="1671.7142857142858" y2="965" stroke="#334155" stroke-width="2.4"  marker-end="url(#arrow)"/>
      <circle cx="1149.4285714285716" cy="965" r="16" fill="#0f766e" stroke="#ffffff" stroke-width="3"/>
      <text x="1149.4285714285716" y="970" text-anchor="middle" font-size="13" font-weight="700" fill="#ffffff">9</text>
    </g>
  

    <g>
      <rect x="1467.1428571428573" y="997" width="180" height="28" rx="8" fill="#ffffff" opacity="0.96"/>
      <text x="1557.1428571428573" y="1014" text-anchor="middle" font-size="14" font-weight="500" fill="#1e293b"><tspan x="1557.1428571428573" dy="0">commit note context</tspan></text>
      <line x1="1125.4285714285716" y1="1050" x2="1988.8571428571431" y2="1050" stroke="#334155" stroke-width="2.4"  marker-end="url(#arrow)"/>
      <circle cx="1149.4285714285716" cy="1050" r="16" fill="#0f766e" stroke="#ffffff" stroke-width="3"/>
      <text x="1149.4285714285716" y="1055" text-anchor="middle" font-size="13" font-weight="700" fill="#ffffff">10</text>
    </g>
  

    <g>
      <rect x="1467.1428571428573" y="1082" width="180" height="28" rx="8" fill="#ffffff" opacity="0.96"/>
      <text x="1557.1428571428573" y="1099" text-anchor="middle" font-size="14" font-weight="500" fill="#1e293b"><tspan x="1557.1428571428573" dy="0">validated note JSON</tspan></text>
      <line x1="1988.8571428571431" y1="1135" x2="1125.4285714285716" y2="1135" stroke="#334155" stroke-width="2.4"  marker-end="url(#arrow-return)"/>
      <circle cx="1964.8571428571431" cy="1135" r="16" fill="#64748b" stroke="#ffffff" stroke-width="3"/>
      <text x="1964.8571428571431" y="1140" text-anchor="middle" font-size="13" font-weight="700" fill="#ffffff">11</text>
    </g>
  

    <g>
      <rect x="1533.7142857142858" y="1167" width="364" height="28" rx="8" fill="#ffffff" opacity="0.96"/>
      <text x="1715.7142857142858" y="1184" text-anchor="middle" font-size="14" font-weight="500" fill="#1e293b"><tspan x="1715.7142857142858" dy="0">write refs/notes/agent-commit @ commit SHA</tspan></text>
      <line x1="1125.4285714285716" y1="1220" x2="2306" y2="1220" stroke="#334155" stroke-width="2.4"  marker-end="url(#arrow)"/>
      <circle cx="1149.4285714285716" cy="1220" r="16" fill="#0f766e" stroke="#ffffff" stroke-width="3"/>
      <text x="1149.4285714285716" y="1225" text-anchor="middle" font-size="13" font-weight="700" fill="#ffffff">12</text>
    </g>
  

    <g>
      <rect x="1276.5714285714287" y="1252" width="244" height="28" rx="8" fill="#ffffff" opacity="0.96"/>
      <text x="1398.5714285714287" y="1269" text-anchor="middle" font-size="14" font-weight="500" fill="#1e293b"><tspan x="1398.5714285714287" dy="0">record note status + digest</tspan></text>
      <line x1="1125.4285714285716" y1="1305" x2="1671.7142857142858" y2="1305" stroke="#334155" stroke-width="2.4"  marker-end="url(#arrow)"/>
      <circle cx="1149.4285714285716" cy="1305" r="16" fill="#0f766e" stroke="#ffffff" stroke-width="3"/>
      <text x="1149.4285714285716" y="1310" text-anchor="middle" font-size="13" font-weight="700" fill="#ffffff">13</text>
    </g>
  

  <text x="64" y="1460" font-size="28" font-weight="700" fill="#0f172a">Stress-Tested Hardening</text>
  
    <g>
      <rect x="64" y="1490" width="430" height="120" rx="12" fill="#dcfce7" stroke="#16a34a" stroke-width="2"/>
      <rect x="80" y="1506" width="72" height="24" rx="6" fill="#16a34a"/>
      <text x="116" y="1524" text-anchor="middle" font-size="12" font-weight="700" fill="#ffffff">GD</text>
      <text x="82" y="1552" text-anchor="start" font-size="15" font-weight="500" fill="#334155"><tspan x="82" dy="0">Inbox is append-only and dedupes by</tspan><tspan x="82" dy="19">client_event_id before attach.</tspan></text>
    </g>
  

    <g>
      <rect x="525" y="1490" width="430" height="120" rx="12" fill="#e0f2fe" stroke="#0284c7" stroke-width="2"/>
      <rect x="541" y="1506" width="72" height="24" rx="6" fill="#0284c7"/>
      <text x="577" y="1524" text-anchor="middle" font-size="12" font-weight="700" fill="#ffffff">GT</text>
      <text x="543" y="1552" text-anchor="start" font-size="15" font-weight="500" fill="#334155"><tspan x="543" dy="0">Attach drains exactly one declared</tspan><tspan x="543" dy="19">braid/thread/session slice into SQLite.</tspan></text>
    </g>
  

    <g>
      <rect x="986" y="1490" width="430" height="120" rx="12" fill="#f3e8ff" stroke="#7c3aed" stroke-width="2"/>
      <rect x="1002" y="1506" width="72" height="24" rx="6" fill="#7c3aed"/>
      <text x="1038" y="1524" text-anchor="middle" font-size="12" font-weight="700" fill="#ffffff">GD</text>
      <text x="1004" y="1552" text-anchor="start" font-size="15" font-weight="500" fill="#334155"><tspan x="1004" dy="0">Scope guard rejects off-scope events and binds</tspan><tspan x="1004" dy="19">every note to a commit SHA.</tspan></text>
    </g>
  

    <g>
      <rect x="1447" y="1490" width="430" height="120" rx="12" fill="#fef3c7" stroke="#d97706" stroke-width="2"/>
      <rect x="1463" y="1506" width="72" height="24" rx="6" fill="#d97706"/>
      <text x="1499" y="1524" text-anchor="middle" font-size="12" font-weight="700" fill="#ffffff">FAIL</text>
      <text x="1465" y="1552" text-anchor="start" font-size="15" font-weight="500" fill="#334155"><tspan x="1465" dy="0">Note generation or git-notes write failure</tspan><tspan x="1465" dy="19">leaves SQLite truth retryable.</tspan></text>
    </g>
  

    <g>
      <rect x="1908" y="1490" width="430" height="120" rx="12" fill="#fee2e2" stroke="#dc2626" stroke-width="2"/>
      <rect x="1924" y="1506" width="72" height="24" rx="6" fill="#dc2626"/>
      <text x="1960" y="1524" text-anchor="middle" font-size="12" font-weight="700" fill="#ffffff">NO</text>
      <text x="1926" y="1552" text-anchor="start" font-size="15" font-weight="500" fill="#334155"><tspan x="1926" dy="0">Commit boundary never promotes; it only</tspan><tspan x="1926" dy="19">records reviewable local evidence.</tspan></text>
    </g>
  

  <rect x="64" y="1655" width="2352" height="64" rx="14" fill="#f8fafc" stroke="#cbd5e1" stroke-width="2"/>
  <text x="88" y="1694" font-size="18" font-weight="700" fill="#0f172a">Boundary invariant</text>
  <text x="270" y="1694" font-size="18" font-weight="500" fill="#334155">Before PR creation, Local SQLite is the source of truth; commit git notes are retryable projections.</text>
</svg>