<svg xmlns="http://www.w3.org/2000/svg" width="2680" height="1840" viewBox="0 0 2680 1840" role="img" aria-labelledby="title desc">
  <title id="title">PR Creation Boundary</title>
  <desc id="desc">A PR checkpoint drains local braid state into Intent DB and creates the first PR/head projection.</desc>
  <defs>
    <marker id="arrow" markerWidth="14" markerHeight="14" refX="12" refY="7" orient="auto" markerUnits="strokeWidth">
      <path d="M2,2 L12,7 L2,12 Z" fill="#334155"/>
    </marker>
    <marker id="arrow-return" markerWidth="14" markerHeight="14" refX="12" refY="7" orient="auto" markerUnits="strokeWidth">
      <path d="M2,2 L12,7 L2,12 Z" fill="#64748b"/>
    </marker>
  </defs>
  <rect width="100%" height="100%" fill="#ffffff"/>
  <text x="64" y="72" font-size="38" font-weight="700" fill="#0f172a">PR Creation Boundary</text>
  <text x="64" y="110" font-size="21" font-weight="500" fill="#475569">A PR checkpoint drains local braid state into Intent DB and creates the first PR/head projection.</text>
  <line x1="60" y1="128" x2="2620" y2="128" stroke="#cbd5e1" stroke-width="2" stroke-dasharray="10 10"/>

  
    <rect x="35" y="145" width="190" height="68" rx="12" fill="#f8fafc" stroke="#cbd5e1" stroke-width="2"/>
    <text x="130" y="173" text-anchor="middle" font-size="17" font-weight="500" fill="#0f172a"><tspan x="130" dy="0">Agent / Developer</tspan></text>
  

    <rect x="337.5" y="145" width="190" height="68" rx="12" fill="#f8fafc" stroke="#cbd5e1" stroke-width="2"/>
    <text x="432.5" y="173" text-anchor="middle" font-size="17" font-weight="500" fill="#0f172a"><tspan x="432.5" dy="0">GitHub PR</tspan></text>
  

    <rect x="640" y="145" width="190" height="68" rx="12" fill="#f8fafc" stroke="#cbd5e1" stroke-width="2"/>
    <text x="735" y="173" text-anchor="middle" font-size="17" font-weight="500" fill="#0f172a"><tspan x="735" dy="0">Braid CLI</tspan></text>
  

    <rect x="942.5" y="145" width="190" height="68" rx="12" fill="#f8fafc" stroke="#cbd5e1" stroke-width="2"/>
    <text x="1037.5" y="173" text-anchor="middle" font-size="17" font-weight="500" fill="#0f172a"><tspan x="1037.5" dy="0">Local Braid Daemon</tspan></text>
  

    <rect x="1245" y="145" width="190" height="68" rx="12" fill="#f8fafc" stroke="#cbd5e1" stroke-width="2"/>
    <text x="1340" y="173" text-anchor="middle" font-size="17" font-weight="500" fill="#0f172a"><tspan x="1340" dy="0">Local SQLite</tspan></text>
  

    <rect x="1547.5" y="145" width="190" height="68" rx="12" fill="#f8fafc" stroke="#cbd5e1" stroke-width="2"/>
    <text x="1642.5" y="173" text-anchor="middle" font-size="17" font-weight="500" fill="#0f172a"><tspan x="1642.5" dy="0">Orchestrator</tspan></text>
  

    <rect x="1850" y="145" width="190" height="68" rx="12" fill="#f8fafc" stroke="#cbd5e1" stroke-width="2"/>
    <text x="1945" y="173" text-anchor="middle" font-size="17" font-weight="500" fill="#0f172a"><tspan x="1945" dy="0">Intent DB</tspan></text>
  

    <rect x="2152.5" y="145" width="190" height="68" rx="12" fill="#f8fafc" stroke="#cbd5e1" stroke-width="2"/>
    <text x="2247.5" y="173" text-anchor="middle" font-size="17" font-weight="500" fill="#0f172a"><tspan x="2247.5" dy="0">Braid Git Note</tspan><tspan x="2247.5" dy="20">Skill</tspan></text>
  

    <rect x="2455" y="145" width="190" height="68" rx="12" fill="#f8fafc" stroke="#cbd5e1" stroke-width="2"/>
    <text x="2550" y="173" text-anchor="middle" font-size="17" font-weight="500" fill="#0f172a"><tspan x="2550" dy="0">PR/head Git Note</tspan><tspan x="2550" dy="20">Namespace</tspan></text>
  
  <line x1="130" y1="224" x2="130" y2="1480" stroke="#cbd5e1" stroke-width="2" stroke-dasharray="8 10"/>
<line x1="432.5" y1="224" x2="432.5" y2="1480" stroke="#cbd5e1" stroke-width="2" stroke-dasharray="8 10"/>
<line x1="735" y1="224" x2="735" y2="1480" stroke="#cbd5e1" stroke-width="2" stroke-dasharray="8 10"/>
<line x1="1037.5" y1="224" x2="1037.5" y2="1480" stroke="#cbd5e1" stroke-width="2" stroke-dasharray="8 10"/>
<line x1="1340" y1="224" x2="1340" y2="1480" stroke="#cbd5e1" stroke-width="2" stroke-dasharray="8 10"/>
<line x1="1642.5" y1="224" x2="1642.5" y2="1480" stroke="#cbd5e1" stroke-width="2" stroke-dasharray="8 10"/>
<line x1="1945" y1="224" x2="1945" y2="1480" stroke="#cbd5e1" stroke-width="2" stroke-dasharray="8 10"/>
<line x1="2247.5" y1="224" x2="2247.5" y2="1480" stroke="#cbd5e1" stroke-width="2" stroke-dasharray="8 10"/>
<line x1="2550" y1="224" x2="2550" y2="1480" stroke="#cbd5e1" stroke-width="2" stroke-dasharray="8 10"/>

  
    <g>
      <rect x="216.25" y="237" width="130" height="28" rx="8" fill="#ffffff" opacity="0.96"/>
      <text x="281.25" y="254" text-anchor="middle" font-size="14" font-weight="500" fill="#1e293b"><tspan x="281.25" dy="0">raise PR</tspan></text>
      <line x1="174" y1="290" x2="388.5" y2="290" stroke="#334155" stroke-width="2.4"  marker-end="url(#arrow)"/>
      <circle cx="198" cy="290" r="16" fill="#0f766e" stroke="#ffffff" stroke-width="3"/>
      <text x="198" y="295" text-anchor="middle" font-size="13" font-weight="700" fill="#ffffff">1</text>
    </g>
  

    <g>
      <rect x="491.5" y="322" width="184.5" height="28" rx="8" fill="#ffffff" opacity="0.96"/>
      <text x="583.75" y="339" text-anchor="middle" font-size="14" font-weight="500" fill="#1e293b"><tspan x="583.75" dy="0">pr.created WorkEvent</tspan></text>
      <line x1="476.5" y1="375" x2="691" y2="375" stroke="#334155" stroke-width="2.4"  marker-end="url(#arrow)"/>
      <circle cx="500.5" cy="375" r="16" fill="#0f766e" stroke="#ffffff" stroke-width="3"/>
      <text x="500.5" y="380" text-anchor="middle" font-size="13" font-weight="700" fill="#ffffff">2</text>
    </g>
  

    <g>
      <rect x="804.25" y="399" width="164" height="48" rx="8" fill="#ffffff" opacity="0.96"/>
      <text x="886.25" y="416" text-anchor="middle" font-size="14" font-weight="500" fill="#1e293b"><tspan x="886.25" dy="0">capture</tspan><tspan x="886.25" dy="18">provider_event_id</tspan></text>
      <line x1="779" y1="460" x2="993.5" y2="460" stroke="#334155" stroke-width="2.4"  marker-end="url(#arrow)"/>
      <circle cx="803" cy="460" r="16" fill="#0f766e" stroke="#ffffff" stroke-width="3"/>
      <text x="803" y="465" text-anchor="middle" font-size="13" font-weight="700" fill="#ffffff">3</text>
    </g>
  

    <g>
      <rect x="1102.75" y="484" width="172" height="48" rx="8" fill="#ffffff" opacity="0.96"/>
      <text x="1188.75" y="501" text-anchor="middle" font-size="14" font-weight="500" fill="#1e293b"><tspan x="1188.75" dy="0">checkpoint current</tspan><tspan x="1188.75" dy="18">local braid state</tspan></text>
      <line x1="1081.5" y1="545" x2="1296" y2="545" stroke="#334155" stroke-width="2.4"  marker-end="url(#arrow)"/>
      <circle cx="1105.5" cy="545" r="16" fill="#0f766e" stroke="#ffffff" stroke-width="3"/>
      <text x="1105.5" y="550" text-anchor="middle" font-size="13" font-weight="700" fill="#ffffff">4</text>
    </g>
  

    <g>
      <rect x="1399" y="569" width="184.5" height="48" rx="8" fill="#ffffff" opacity="0.96"/>
      <text x="1491.25" y="586" text-anchor="middle" font-size="14" font-weight="500" fill="#1e293b"><tspan x="1491.25" dy="0">drain braid/thread/raw</tspan><tspan x="1491.25" dy="18">events + SHAs</tspan></text>
      <line x1="1384" y1="630" x2="1598.5" y2="630" stroke="#334155" stroke-width="2.4"  marker-end="url(#arrow)"/>
      <circle cx="1408" cy="630" r="16" fill="#0f766e" stroke="#ffffff" stroke-width="3"/>
      <text x="1408" y="635" text-anchor="middle" font-size="13" font-weight="700" fill="#ffffff">5</text>
    </g>
  

    <g>
      <rect x="1701.5" y="654" width="184.5" height="48" rx="8" fill="#ffffff" opacity="0.96"/>
      <text x="1793.75" y="671" text-anchor="middle" font-size="14" font-weight="500" fill="#1e293b"><tspan x="1793.75" dy="0">store projection v1 +</tspan><tspan x="1793.75" dy="18">digest</tspan></text>
      <line x1="1686.5" y1="715" x2="1901" y2="715" stroke="#334155" stroke-width="2.4"  marker-end="url(#arrow)"/>
      <circle cx="1710.5" cy="715" r="16" fill="#0f766e" stroke="#ffffff" stroke-width="3"/>
      <text x="1710.5" y="720" text-anchor="middle" font-size="13" font-weight="700" fill="#ffffff">6</text>
    </g>
  

    <g>
      <rect x="1707.75" y="739" width="172" height="48" rx="8" fill="#ffffff" opacity="0.96"/>
      <text x="1793.75" y="756" text-anchor="middle" font-size="14" font-weight="500" fill="#1e293b"><tspan x="1793.75" dy="0">durable URI +</tspan><tspan x="1793.75" dy="18">projection version</tspan></text>
      <line x1="1901" y1="800" x2="1686.5" y2="800" stroke="#334155" stroke-width="2.4"  marker-end="url(#arrow-return)"/>
      <circle cx="1877" cy="800" r="16" fill="#64748b" stroke="#ffffff" stroke-width="3"/>
      <text x="1877" y="805" text-anchor="middle" font-size="13" font-weight="700" fill="#ffffff">7</text>
    </g>
  

    <g>
      <rect x="1701.5" y="824" width="184.5" height="48" rx="8" fill="#ffffff" opacity="0.96"/>
      <text x="1793.75" y="841" text-anchor="middle" font-size="14" font-weight="500" fill="#1e293b"><tspan x="1793.75" dy="0">query workevent slice</tspan><tspan x="1793.75" dy="18">v1</tspan></text>
      <line x1="1686.5" y1="885" x2="1901" y2="885" stroke="#334155" stroke-width="2.4"  marker-end="url(#arrow)"/>
      <circle cx="1710.5" cy="885" r="16" fill="#0f766e" stroke="#ffffff" stroke-width="3"/>
      <text x="1710.5" y="890" text-anchor="middle" font-size="13" font-weight="700" fill="#ffffff">8</text>
    </g>
  

    <g>
      <rect x="1811" y="917" width="268" height="28" rx="8" fill="#ffffff" opacity="0.96"/>
      <text x="1945" y="934" text-anchor="middle" font-size="14" font-weight="500" fill="#1e293b"><tspan x="1945" dy="0">PR note context from Intent DB</tspan></text>
      <line x1="1686.5" y1="970" x2="2203.5" y2="970" stroke="#334155" stroke-width="2.4"  marker-end="url(#arrow)"/>
      <circle cx="1710.5" cy="970" r="16" fill="#0f766e" stroke="#ffffff" stroke-width="3"/>
      <text x="1710.5" y="975" text-anchor="middle" font-size="13" font-weight="700" fill="#ffffff">9</text>
    </g>
  

    <g>
      <rect x="1843" y="1002" width="204" height="28" rx="8" fill="#ffffff" opacity="0.96"/>
      <text x="1945" y="1019" text-anchor="middle" font-size="14" font-weight="500" fill="#1e293b"><tspan x="1945" dy="0">validated PR note JSON</tspan></text>
      <line x1="2203.5" y1="1055" x2="1686.5" y2="1055" stroke="#334155" stroke-width="2.4"  marker-end="url(#arrow-return)"/>
      <circle cx="2179.5" cy="1055" r="16" fill="#64748b" stroke="#ffffff" stroke-width="3"/>
      <text x="2179.5" y="1060" text-anchor="middle" font-size="13" font-weight="700" fill="#ffffff">10</text>
    </g>
  

    <g>
      <rect x="1938.25" y="1087" width="316" height="28" rx="8" fill="#ffffff" opacity="0.96"/>
      <text x="2096.25" y="1104" text-anchor="middle" font-size="14" font-weight="500" fill="#1e293b"><tspan x="2096.25" dy="0">write refs/notes/agent-pr @ head SHA</tspan></text>
      <line x1="1686.5" y1="1140" x2="2506" y2="1140" stroke="#334155" stroke-width="2.4"  marker-end="url(#arrow)"/>
      <circle cx="1710.5" cy="1140" r="16" fill="#0f766e" stroke="#ffffff" stroke-width="3"/>
      <text x="1710.5" y="1145" text-anchor="middle" font-size="13" font-weight="700" fill="#ffffff">11</text>
    </g>
  

    <g>
      <rect x="923.5" y="1172" width="228" height="28" rx="8" fill="#ffffff" opacity="0.96"/>
      <text x="1037.5" y="1189" text-anchor="middle" font-size="14" font-weight="500" fill="#1e293b"><tspan x="1037.5" dy="0">update PR body or comment</tspan></text>
      <line x1="1598.5" y1="1225" x2="476.5" y2="1225" stroke="#334155" stroke-width="2.4"  marker-end="url(#arrow)"/>
      <circle cx="1574.5" cy="1225" r="16" fill="#0f766e" stroke="#ffffff" stroke-width="3"/>
      <text x="1574.5" y="1230" text-anchor="middle" font-size="13" font-weight="700" fill="#ffffff">12</text>
    </g>
  

    <g>
      <rect x="1701.5" y="1249" width="184.5" height="48" rx="8" fill="#ffffff" opacity="0.96"/>
      <text x="1793.75" y="1266" text-anchor="middle" font-size="14" font-weight="500" fill="#1e293b"><tspan x="1793.75" dy="0">record note + summary</tspan><tspan x="1793.75" dy="18">statuses</tspan></text>
      <line x1="1686.5" y1="1310" x2="1901" y2="1310" stroke="#334155" stroke-width="2.4"  marker-end="url(#arrow)"/>
      <circle cx="1710.5" cy="1310" r="16" fill="#0f766e" stroke="#ffffff" stroke-width="3"/>
      <text x="1710.5" y="1315" text-anchor="middle" font-size="13" font-weight="700" fill="#ffffff">13</text>
    </g>
  

  <text x="64" y="1540" font-size="28" font-weight="700" fill="#0f172a">Stress-Tested Hardening</text>
  
    <g>
      <rect x="64" y="1570" width="470" height="120" rx="12" fill="#e0f2fe" stroke="#0284c7" stroke-width="2"/>
      <rect x="80" y="1586" width="72" height="24" rx="6" fill="#0284c7"/>
      <text x="116" y="1604" text-anchor="middle" font-size="12" font-weight="700" fill="#ffffff">GT</text>
      <text x="82" y="1632" text-anchor="start" font-size="15" font-weight="500" fill="#334155"><tspan x="82" dy="0">This is the source-of-truth handoff from SQLite to</tspan><tspan x="82" dy="19">Intent DB.</tspan></text>
    </g>
  

    <g>
      <rect x="565" y="1570" width="470" height="120" rx="12" fill="#dcfce7" stroke="#16a34a" stroke-width="2"/>
      <rect x="581" y="1586" width="72" height="24" rx="6" fill="#16a34a"/>
      <text x="617" y="1604" text-anchor="middle" font-size="12" font-weight="700" fill="#ffffff">GD</text>
      <text x="583" y="1632" text-anchor="start" font-size="15" font-weight="500" fill="#334155"><tspan x="583" dy="0">pr.created is idempotent; duplicate webhook or hook</tspan><tspan x="583" dy="19">events do not duplicate projections.</tspan></text>
    </g>
  

    <g>
      <rect x="1066" y="1570" width="470" height="120" rx="12" fill="#f3e8ff" stroke="#7c3aed" stroke-width="2"/>
      <rect x="1082" y="1586" width="72" height="24" rx="6" fill="#7c3aed"/>
      <text x="1118" y="1604" text-anchor="middle" font-size="12" font-weight="700" fill="#ffffff">SHA</text>
      <text x="1084" y="1632" text-anchor="start" font-size="15" font-weight="500" fill="#334155"><tspan x="1084" dy="0">PR id, URL, branch, base SHA, and head SHA are all</tspan><tspan x="1084" dy="19">stored with v1.</tspan></text>
    </g>
  

    <g>
      <rect x="1567" y="1570" width="470" height="120" rx="12" fill="#fef3c7" stroke="#d97706" stroke-width="2"/>
      <rect x="1583" y="1586" width="72" height="24" rx="6" fill="#d97706"/>
      <text x="1619" y="1604" text-anchor="middle" font-size="12" font-weight="700" fill="#ffffff">FAIL</text>
      <text x="1585" y="1632" text-anchor="start" font-size="15" font-weight="500" fill="#334155"><tspan x="1585" dy="0">PR summary and git-note writes can fail</tspan><tspan x="1585" dy="19">independently and be retried from Intent DB.</tspan></text>
    </g>
  

    <g>
      <rect x="2068" y="1570" width="470" height="120" rx="12" fill="#dcfce7" stroke="#16a34a" stroke-width="2"/>
      <rect x="2084" y="1586" width="72" height="24" rx="6" fill="#16a34a"/>
      <text x="2120" y="1604" text-anchor="middle" font-size="12" font-weight="700" fill="#ffffff">GD</text>
      <text x="2086" y="1632" text-anchor="start" font-size="15" font-weight="500" fill="#334155"><tspan x="2086" dy="0">Redaction, schema validation, and digest</tspan><tspan x="2086" dy="19">calculation happen before durable projection.</tspan></text>
    </g>
  

  <rect x="64" y="1735" width="2552" height="64" rx="14" fill="#f8fafc" stroke="#cbd5e1" stroke-width="2"/>
  <text x="88" y="1774" font-size="18" font-weight="700" fill="#0f172a">Boundary invariant</text>
  <text x="270" y="1774" font-size="18" font-weight="500" fill="#334155">At PR creation, Intent DB becomes truth; PR/head notes and PR summaries are projections of projection v1.</text>
</svg>