<svg xmlns="http://www.w3.org/2000/svg" width="388" height="642" viewBox="0 0 388 642" role="img" aria-label="Braid logo">
<rect width="100%" height="100%" fill="none"/>
<g fill="#000000">
  <path d="M 325 23 L 323 23 L 322 22 L 319 22 L 318 21 L 313 21 L 312 20 L 298 20 L 297 21 L 293 21 L 292 22 L 289 22 L 288 23 L 286 23 L 285 24 L 284 24 L 283 25 L 282 25 L 281 26 L 280 26 L 279 27 L 276 28 L 274 30 L 273 30 L 270 33 L 269 33 L 208 94 L 208 95 L 171 132 L 171 133 L 121 183 L 121 184 L 97 208 L 97 209 L 148 260 L 148 261 L 154 267 L 155 267 L 163 275 L 163 276 L 164 277 L 165 277 L 166 278 L 166 279 L 167 279 L 168 280 L 168 281 L 172 285 L 173 285 L 174 286 L 174 287 L 175 287 L 176 288 L 176 289 L 182 295 L 183 295 L 184 296 L 184 297 L 185 298 L 186 298 L 193 305 L 193 306 L 243 256 L 243 255 L 337 161 L 337 160 L 342 155 L 342 154 L 345 151 L 345 150 L 347 148 L 347 147 L 351 142 L 351 141 L 352 140 L 353 137 L 355 135 L 355 134 L 357 131 L 357 129 L 360 124 L 360 122 L 361 121 L 361 119 L 362 118 L 362 116 L 363 115 L 363 112 L 364 111 L 364 108 L 365 107 L 365 102 L 366 101 L 366 92 L 367 91 L 367 88 L 366 87 L 366 78 L 365 77 L 365 73 L 364 72 L 364 69 L 363 68 L 363 65 L 362 64 L 362 62 L 361 61 L 361 60 L 358 55 L 358 53 L 356 51 L 355 48 L 353 46 L 353 45 L 350 42 L 350 41 L 342 33 L 341 33 L 338 30 L 337 30 L 335 28 L 334 28 L 333 27 L 332 27 L 331 26 L 330 26 Z"/>
  <path d="M 327 220 L 326 220 L 307 239 L 307 240 L 244 303 L 244 318 L 243 319 L 243 322 L 242 323 L 242 325 L 241 326 L 241 328 L 240 329 L 239 332 L 237 334 L 236 337 L 234 339 L 234 340 L 198 376 L 198 377 L 136 439 L 136 440 L 120 456 L 180 516 L 180 517 L 181 517 L 195 531 L 259 467 L 259 466 L 320 405 L 320 404 L 338 386 L 338 385 L 341 382 L 341 381 L 344 378 L 344 377 L 346 375 L 346 374 L 350 369 L 350 368 L 351 367 L 352 364 L 354 362 L 354 361 L 355 360 L 355 358 L 356 357 L 356 356 L 359 351 L 359 349 L 360 348 L 360 346 L 361 345 L 361 343 L 362 342 L 362 340 L 363 339 L 363 336 L 364 335 L 364 332 L 365 331 L 365 326 L 366 325 L 366 316 L 367 315 L 367 303 L 366 302 L 366 294 L 365 293 L 365 288 L 364 287 L 364 283 L 363 282 L 363 279 L 362 278 L 362 276 L 361 275 L 361 273 L 360 272 L 360 270 L 359 269 L 359 267 L 356 262 L 356 260 L 355 259 L 355 258 L 354 257 L 354 256 L 353 255 L 352 252 L 350 250 L 349 247 L 347 245 L 347 244 L 345 242 L 345 241 L 343 239 L 343 238 L 340 235 L 340 234 L 335 229 L 335 228 Z"/>
  <path d="M 60 220 L 49 231 L 49 232 L 43 239 L 43 240 L 41 242 L 41 243 L 37 248 L 37 249 L 36 250 L 36 251 L 35 252 L 35 253 L 34 254 L 34 255 L 33 256 L 33 257 L 32 258 L 32 259 L 29 264 L 29 266 L 27 269 L 27 271 L 26 272 L 26 274 L 25 275 L 25 277 L 24 278 L 24 281 L 23 282 L 23 285 L 22 286 L 22 290 L 21 291 L 21 298 L 20 299 L 20 319 L 21 320 L 21 326 L 22 327 L 22 332 L 23 333 L 23 336 L 24 337 L 24 340 L 25 341 L 25 343 L 26 344 L 26 346 L 27 347 L 27 348 L 28 349 L 28 351 L 29 352 L 29 353 L 32 358 L 32 360 L 34 362 L 34 363 L 35 364 L 36 367 L 38 369 L 38 370 L 40 372 L 40 373 L 42 375 L 42 376 L 45 379 L 45 380 L 49 384 L 49 385 L 96 432 L 97 432 L 113 416 L 113 415 L 183 345 L 183 344 L 150 311 L 150 310 L 149 310 L 147 308 L 147 307 Z"/>
  <path d="M 58 445 L 46 458 L 46 459 L 43 462 L 43 463 L 41 465 L 41 466 L 37 471 L 37 472 L 36 473 L 36 474 L 35 475 L 35 476 L 34 477 L 34 478 L 33 479 L 33 480 L 32 481 L 32 482 L 31 483 L 31 484 L 28 489 L 28 491 L 27 492 L 27 494 L 26 495 L 26 497 L 25 498 L 25 500 L 24 501 L 24 504 L 23 505 L 23 508 L 22 509 L 22 513 L 21 514 L 21 521 L 20 522 L 20 542 L 21 543 L 21 550 L 22 551 L 22 555 L 23 556 L 23 559 L 24 560 L 24 562 L 25 563 L 25 565 L 26 566 L 26 568 L 28 571 L 28 573 L 29 574 L 29 575 L 30 576 L 30 577 L 31 578 L 31 579 L 32 580 L 33 583 L 35 585 L 35 586 L 37 588 L 37 589 L 40 592 L 40 593 L 51 604 L 52 604 L 56 608 L 59 609 L 61 611 L 62 611 L 63 612 L 64 612 L 65 613 L 66 613 L 71 616 L 73 616 L 74 617 L 76 617 L 77 618 L 79 618 L 80 619 L 82 619 L 83 620 L 88 620 L 89 621 L 112 621 L 113 620 L 117 620 L 118 619 L 120 619 L 121 618 L 124 618 L 127 616 L 129 616 L 130 615 L 132 615 L 133 614 L 136 613 L 138 611 L 141 610 L 143 608 L 144 608 L 149 604 L 150 604 L 184 570 L 182 568 L 182 567 L 181 567 L 170 556 L 170 555 L 105 490 L 104 490 L 102 488 L 102 487 L 93 478 L 92 478 L 89 475 L 89 474 L 82 467 L 81 467 L 59 445 Z"/>
  <path d="M 329 445 L 328 445 L 277 496 L 277 497 L 210 564 L 210 565 L 205 570 L 205 571 L 230 596 L 230 597 L 233 600 L 234 600 L 239 605 L 240 605 L 242 607 L 243 607 L 248 611 L 249 611 L 250 612 L 251 612 L 253 614 L 255 614 L 260 617 L 262 617 L 263 618 L 265 618 L 266 619 L 269 619 L 270 620 L 274 620 L 275 621 L 298 621 L 299 620 L 304 620 L 305 619 L 307 619 L 308 618 L 311 618 L 314 616 L 316 616 L 317 615 L 318 615 L 319 614 L 320 614 L 321 613 L 322 613 L 323 612 L 326 611 L 328 609 L 329 609 L 331 607 L 332 607 L 335 604 L 336 604 L 347 593 L 347 592 L 349 590 L 349 589 L 352 586 L 352 585 L 353 584 L 353 583 L 354 582 L 355 579 L 357 577 L 357 575 L 360 570 L 360 568 L 361 567 L 361 565 L 362 564 L 362 562 L 363 561 L 363 558 L 364 557 L 364 554 L 365 553 L 365 549 L 366 548 L 366 540 L 367 539 L 367 524 L 366 523 L 366 515 L 365 514 L 365 510 L 364 509 L 364 505 L 363 504 L 363 502 L 362 501 L 362 498 L 361 497 L 361 495 L 359 492 L 359 490 L 358 489 L 358 487 L 357 486 L 357 485 L 356 484 L 356 483 L 355 482 L 355 481 L 354 480 L 354 479 L 353 478 L 353 477 L 352 476 L 351 473 L 349 471 L 349 470 L 347 468 L 347 467 L 345 465 L 345 464 L 343 462 L 343 461 L 339 457 L 339 456 L 335 452 L 335 451 Z"/>
  <path d="M 89 20 L 75 20 L 74 21 L 69 21 L 68 22 L 66 22 L 65 23 L 63 23 L 60 25 L 58 25 L 57 26 L 54 27 L 52 29 L 51 29 L 48 32 L 47 32 L 43 36 L 42 36 L 41 37 L 41 38 L 35 44 L 35 45 L 31 50 L 31 51 L 30 52 L 30 53 L 29 54 L 29 55 L 26 60 L 26 62 L 24 65 L 24 68 L 23 69 L 23 71 L 22 72 L 22 75 L 21 76 L 21 82 L 20 83 L 20 101 L 21 102 L 21 109 L 22 110 L 22 114 L 23 115 L 23 118 L 24 119 L 24 121 L 25 122 L 25 124 L 26 125 L 26 127 L 27 128 L 27 130 L 29 133 L 29 135 L 30 136 L 30 137 L 31 138 L 31 139 L 32 140 L 33 143 L 35 145 L 36 148 L 38 150 L 38 151 L 40 153 L 40 154 L 43 157 L 43 158 L 47 162 L 47 163 L 67 183 L 68 183 L 73 188 L 74 188 L 101 161 L 101 160 L 108 153 L 109 153 L 109 152 L 157 104 L 157 103 L 172 88 L 172 87 L 164 79 L 164 78 L 121 35 L 120 35 L 116 31 L 115 31 L 113 29 L 110 28 L 108 26 L 107 26 L 104 24 L 102 24 L 101 23 L 99 23 L 98 22 L 95 22 L 94 21 L 90 21 Z"/>
</g>
</svg>
