<?xml version="1.0" encoding="UTF-8" standalone="no"?>
<!DOCTYPE svg PUBLIC "-//W3C//DTD SVG 1.1//EN"
 "http://www.w3.org/Graphics/SVG/1.1/DTD/svg11.dtd">
<!-- Generated by graphviz version 15.0.0 (20260523.1842)
 -->
<!-- Title: BraidConvergence Pages: 1 -->
<svg width="1520pt" height="2965pt"
 viewBox="0.00 0.00 1520.00 2965.00" xmlns="http://www.w3.org/2000/svg" xmlns:xlink="http://www.w3.org/1999/xlink">
<g id="graph0" class="graph" transform="scale(1 1) rotate(0) translate(25.2 2939.6)">
<title>BraidConvergence</title>
<polygon fill="white" stroke="none" points="-25.2,25.2 -25.2,-2939.6 1495.22,-2939.6 1495.22,25.2 -25.2,25.2"/>
<text xml:space="preserve" text-anchor="start" x="522.01" y="-2890.5" font-family="Helvetica,sans-Serif" font-size="14.00"> &#160;&#160;&#160;&#160;&#160;</text>
<text xml:space="preserve" text-anchor="start" x="544.51" y="-2890.5" font-family="Helvetica,sans-Serif" font-weight="bold" font-size="22.00">Braid: Two&#45;Pipeline Convergence Flow</text>
<text xml:space="preserve" text-anchor="start" x="519.38" y="-2876.1" font-family="Helvetica,sans-Serif" font-size="14.00"> &#160;&#160;&#160;&#160;&#160;</text>
<text xml:space="preserve" text-anchor="start" x="541.88" y="-2876.1" font-family="Helvetica,sans-Serif" font-size="11.00">Independent agentic workstreams coordinated, reviewed and promoted through Braid</text>
<text xml:space="preserve" text-anchor="start" x="727.51" y="-2848.1" font-family="Helvetica,sans-Serif" font-size="14.00"> &#160;&#160;&#160;</text>
<g id="clust2" class="cluster">
<title>cluster_parallel</title>
<path fill="white" stroke="#9aa7b4" stroke-width="1.5" stroke-dasharray="5,2" d="M194.64,-1647.02C194.64,-1647.02 932.64,-1647.02 932.64,-1647.02 938.64,-1647.02 944.64,-1653.02 944.64,-1659.02 944.64,-1659.02 944.64,-2369.6 944.64,-2369.6 944.64,-2375.6 938.64,-2381.6 932.64,-2381.6 932.64,-2381.6 194.64,-2381.6 194.64,-2381.6 188.64,-2381.6 182.64,-2375.6 182.64,-2369.6 182.64,-2369.6 182.64,-1659.02 182.64,-1659.02 182.64,-1653.02 188.64,-1647.02 194.64,-1647.02"/>
<text xml:space="preserve" text-anchor="middle" x="563.64" y="-2365.25" font-family="Helvetica,sans-Serif" font-weight="bold" font-size="13.00">PARALLEL SESSIONS</text>
</g>
<g id="clust3" class="cluster">
<title>cluster_a</title>
<path fill="#f7fbff" stroke="#75baff" stroke-width="1.5" d="M212.64,-1665.02C212.64,-1665.02 542.64,-1665.02 542.64,-1665.02 548.64,-1665.02 554.64,-1671.02 554.64,-1677.02 554.64,-1677.02 554.64,-2330.1 554.64,-2330.1 554.64,-2336.1 548.64,-2342.1 542.64,-2342.1 542.64,-2342.1 212.64,-2342.1 212.64,-2342.1 206.64,-2342.1 200.64,-2336.1 200.64,-2330.1 200.64,-2330.1 200.64,-1677.02 200.64,-1677.02 200.64,-1671.02 206.64,-1665.02 212.64,-1665.02"/>
<text xml:space="preserve" text-anchor="middle" x="377.64" y="-2325.75" font-family="Helvetica,sans-Serif" font-weight="bold" font-size="13.00">PIPELINE SESSION A</text>
</g>
<g id="clust4" class="cluster">
<title>cluster_b</title>
<path fill="#f7fbff" stroke="#75baff" stroke-width="1.5" d="M584.64,-1665.02C584.64,-1665.02 914.64,-1665.02 914.64,-1665.02 920.64,-1665.02 926.64,-1671.02 926.64,-1677.02 926.64,-1677.02 926.64,-2330.1 926.64,-2330.1 926.64,-2336.1 920.64,-2342.1 914.64,-2342.1 914.64,-2342.1 584.64,-2342.1 584.64,-2342.1 578.64,-2342.1 572.64,-2336.1 572.64,-2330.1 572.64,-2330.1 572.64,-1677.02 572.64,-1677.02 572.64,-1671.02 578.64,-1665.02 584.64,-1665.02"/>
<text xml:space="preserve" text-anchor="middle" x="749.64" y="-2325.75" font-family="Helvetica,sans-Serif" font-weight="bold" font-size="13.00">PIPELINE SESSION B</text>
</g>
<!-- LEGEND -->
<g id="node1" class="node">
<title>LEGEND</title>
<path fill="lightgrey" stroke="none" stroke-width="2" d="M1458.02,-2842.4C1458.02,-2842.4 683.27,-2842.4 683.27,-2842.4 677.27,-2842.4 671.27,-2836.4 671.27,-2830.4 671.27,-2830.4 671.27,-2812.4 671.27,-2812.4 671.27,-2806.4 677.27,-2800.4 683.27,-2800.4 683.27,-2800.4 1458.02,-2800.4 1458.02,-2800.4 1464.02,-2800.4 1470.02,-2806.4 1470.02,-2812.4 1470.02,-2812.4 1470.02,-2830.4 1470.02,-2830.4 1470.02,-2836.4 1464.02,-2842.4 1458.02,-2842.4"/>
<text xml:space="preserve" text-anchor="start" x="685.27" y="-2817.95" font-family="Helvetica,sans-Serif" font-weight="bold" font-size="11.00">LEGEND</text>
<polygon fill="#fef0e5" stroke="none" points="745.77,-2810.4 745.77,-2832.4 908.02,-2832.4 908.02,-2810.4 745.77,-2810.4"/>
<polygon fill="none" stroke="#f3883b" points="745.77,-2810.4 745.77,-2832.4 908.02,-2832.4 908.02,-2810.4 745.77,-2810.4"/>
<text xml:space="preserve" text-anchor="start" x="750.77" y="-2818.4" font-family="Helvetica,sans-Serif" font-size="11.00">Braid coordination and authority</text>
<polygon fill="#dceeff" stroke="none" points="918.02,-2810.4 918.02,-2832.4 1030.02,-2832.4 1030.02,-2810.4 918.02,-2810.4"/>
<polygon fill="none" stroke="#339cff" points="918.02,-2810.4 918.02,-2832.4 1030.02,-2832.4 1030.02,-2810.4 918.02,-2810.4"/>
<text xml:space="preserve" text-anchor="start" x="923.02" y="-2818.4" font-family="Helvetica,sans-Serif" font-size="11.00">Agentic pipeline work</text>
<polygon fill="#e1f6e8" stroke="none" points="1040.02,-2810.4 1040.02,-2832.4 1156.52,-2832.4 1156.52,-2810.4 1040.02,-2810.4"/>
<polygon fill="none" stroke="#299052" points="1040.02,-2810.4 1040.02,-2832.4 1156.52,-2832.4 1156.52,-2810.4 1040.02,-2810.4"/>
<text xml:space="preserve" text-anchor="start" x="1045.02" y="-2818.4" font-family="Helvetica,sans-Serif" font-size="11.00">Integration and review</text>
<polygon fill="#eeeeee" stroke="none" points="1166.52,-2810.4 1166.52,-2832.4 1310.02,-2832.4 1310.02,-2810.4 1166.52,-2810.4"/>
<polygon fill="none" stroke="#777777" points="1166.52,-2810.4 1166.52,-2832.4 1310.02,-2832.4 1310.02,-2810.4 1166.52,-2810.4"/>
<text xml:space="preserve" text-anchor="start" x="1171.52" y="-2818.4" font-family="Helvetica,sans-Serif" font-size="11.00">External system or outcome</text>
<text xml:space="preserve" text-anchor="start" x="1324.02" y="-2818.4" font-family="Helvetica,sans-Serif" font-size="11.00" fill="#555f6b">Diamond = decision or gate</text>
</g>
<!-- ISSUE -->
<g id="node2" class="node" transform="translate(-300 0)">
<title>ISSUE</title>
<path fill="#eeeeee" stroke="#777777" stroke-width="2" d="M1117.79,-2759.4C1117.79,-2759.4 1023.5,-2759.4 1023.5,-2759.4 1017.5,-2759.4 1011.5,-2753.4 1011.5,-2747.4 1011.5,-2747.4 1011.5,-2735.4 1011.5,-2735.4 1011.5,-2729.4 1017.5,-2723.4 1023.5,-2723.4 1023.5,-2723.4 1117.79,-2723.4 1117.79,-2723.4 1123.79,-2723.4 1129.79,-2729.4 1129.79,-2735.4 1129.79,-2735.4 1129.79,-2747.4 1129.79,-2747.4 1129.79,-2753.4 1123.79,-2759.4 1117.79,-2759.4"/>
<text xml:space="preserve" text-anchor="middle" x="1070.64" y="-2736.95" font-family="Helvetica,sans-Serif" font-size="11.00" fill="#1a1c1f">Issue or parent goal</text>
</g>
<!-- LEGEND&#45;&gt;ISSUE -->
<!-- ISSUE_SHIFT -->
<!-- ISSUE&#45;&gt;ISSUE_SHIFT -->
<!-- PLANNER -->
<g id="node6" class="node">
<title>PLANNER</title>
<path fill="#dceeff" stroke="#339cff" stroke-width="2" d="M1138.04,-2682.4C1138.04,-2682.4 1003.25,-2682.4 1003.25,-2682.4 997.25,-2682.4 991.25,-2676.4 991.25,-2670.4 991.25,-2670.4 991.25,-2658.4 991.25,-2658.4 991.25,-2652.4 997.25,-2646.4 1003.25,-2646.4 1003.25,-2646.4 1138.04,-2646.4 1138.04,-2646.4 1144.04,-2646.4 1150.04,-2652.4 1150.04,-2658.4 1150.04,-2658.4 1150.04,-2670.4 1150.04,-2670.4 1150.04,-2676.4 1144.04,-2682.4 1138.04,-2682.4"/>
<text xml:space="preserve" text-anchor="middle" x="1070.64" y="-2659.95" font-family="Helvetica,sans-Serif" font-size="11.00" fill="#1a1c1f">Planner agent analyzes goal</text>
</g>
<!-- ISSUE&#45;&gt;PLANNER -->
<g id="edge3" class="edge">
<title>ISSUE&#45;&gt;PLANNER</title>
<path fill="none" stroke="#555f6b" stroke-width="1.35" d="M770.64,-2722.76 C770.64,-2707.5 1070.64,-2707.5 1070.64,-2692.18"/>
<polygon fill="#555f6b" stroke="#555f6b" stroke-width="1.35" points="1073.1,-2692.18 1070.65,-2685.18 1068.2,-2692.18 1073.1,-2692.18"/>
</g>
<!-- MERGE -->
<g id="node4" class="node">
<title>MERGE</title>
<path fill="#eeeeee" stroke="#777777" stroke-width="2" d="M974.29,-395.58C974.29,-395.58 847,-395.58 847,-395.58 841,-395.58 835,-389.58 835,-383.58 835,-383.58 835,-369.18 835,-369.18 835,-363.18 841,-357.18 847,-357.18 847,-357.18 974.29,-357.18 974.29,-357.18 980.29,-357.18 986.29,-363.18 986.29,-369.18 986.29,-369.18 986.29,-383.58 986.29,-383.58 986.29,-389.58 980.29,-395.58 974.29,-395.58"/>
<text xml:space="preserve" text-anchor="middle" x="910.64" y="-377.93" font-family="Helvetica,sans-Serif" font-size="11.00" fill="#1a1c1f">Git provider merges</text>
<text xml:space="preserve" text-anchor="middle" x="910.64" y="-365.93" font-family="Helvetica,sans-Serif" font-size="11.00" fill="#1a1c1f">exact authorized candidate</text>
</g>
<!-- FINALIZE -->
<g id="node51" class="node">
<title>FINALIZE</title>
<path fill="#fef0e5" stroke="#f3883b" stroke-width="2" d="M976.79,-307.43C976.79,-307.43 828.5,-307.43 828.5,-307.43 822.5,-307.43 816.5,-301.43 816.5,-295.43 816.5,-295.43 816.5,-281.03 816.5,-281.03 816.5,-275.03 822.5,-269.03 828.5,-269.03 828.5,-269.03 976.79,-269.03 976.79,-269.03 982.79,-269.03 988.79,-275.03 988.79,-281.03 988.79,-281.03 988.79,-295.43 988.79,-295.43 988.79,-301.43 982.79,-307.43 976.79,-307.43"/>
<text xml:space="preserve" text-anchor="middle" x="902.64" y="-289.78" font-family="Helvetica,sans-Serif" font-size="11.00" fill="#1a1c1f">BRAID: Write provenance note</text>
<text xml:space="preserve" text-anchor="middle" x="902.64" y="-277.78" font-family="Helvetica,sans-Serif" font-size="11.00" fill="#1a1c1f">sync lifecycle and final intent</text>
</g>
<!-- MERGE&#45;&gt;FINALIZE -->
<g id="edge65" class="edge">
<title>MERGE&#45;&gt;FINALIZE</title>
<path fill="none" stroke="#555f6b" stroke-width="1.35" d="M910.64,-356.38C910.64,-356.38 910.64,-317.2 910.64,-317.2"/>
<polygon fill="#555f6b" stroke="#555f6b" stroke-width="1.35" points="913.1,-317.2 910.65,-310.2 908.2,-317.2 913.1,-317.2"/>
</g>
<!-- DONE -->
<g id="node5" class="node">
<title>DONE</title>
<path fill="#eeeeee" stroke="#777777" stroke-width="2" d="M1017.16,-36C1017.16,-36 910.12,-36 910.12,-36 904.12,-36 898.12,-30 898.12,-24 898.12,-24 898.12,-12 898.12,-12 898.12,-6 904.12,0 910.12,0 910.12,0 1017.16,0 1017.16,0 1023.16,0 1029.16,-6 1029.16,-12 1029.16,-12 1029.16,-24 1029.16,-24 1029.16,-30 1023.16,-36 1017.16,-36"/>
<text xml:space="preserve" text-anchor="middle" x="963.64" y="-13.55" font-family="Helvetica,sans-Serif" font-size="11.00" fill="#1a1c1f">Parent goal completed</text>
</g>
<!-- CLAIM -->
<g id="node8" class="node">
<title>CLAIM</title>
<path fill="#fef0e5" stroke="#f3883b" stroke-width="2" d="M1078.91,-2605.4C1078.91,-2605.4 928.38,-2605.4 928.38,-2605.4 922.38,-2605.4 916.38,-2599.4 916.38,-2593.4 916.38,-2593.4 916.38,-2581.4 916.38,-2581.4 916.38,-2575.4 922.38,-2569.4 928.38,-2569.4 928.38,-2569.4 1078.91,-2569.4 1078.91,-2569.4 1084.91,-2569.4 1090.91,-2575.4 1090.91,-2581.4 1090.91,-2581.4 1090.91,-2593.4 1090.91,-2593.4 1090.91,-2599.4 1084.91,-2605.4 1078.91,-2605.4"/>
<text xml:space="preserve" text-anchor="middle" x="1003.64" y="-2582.95" font-family="Helvetica,sans-Serif" font-size="11.00" fill="#1a1c1f">BRAID: Claim and register goal</text>
</g>
<!-- PLANNER&#45;&gt;CLAIM -->
<g id="edge4" class="edge">
<title>PLANNER&#45;&gt;CLAIM</title>
<path fill="none" stroke="#555f6b" stroke-width="1.35" d="M1041.08,-2645.76C1041.08,-2645.76 1041.08,-2615.18 1041.08,-2615.18"/>
<polygon fill="#555f6b" stroke="#555f6b" stroke-width="1.35" points="1043.53,-2615.18 1041.08,-2608.18 1038.63,-2615.18 1043.53,-2615.18"/>
</g>
<!-- CONVERGE -->
<g id="node7" class="node">
<title>CONVERGE</title>
<path fill="#dceeff" stroke="#339cff" stroke-width="2" d="M890.54,-1149.76C890.54,-1149.76 746.75,-1149.76 746.75,-1149.76 740.75,-1149.76 734.75,-1143.76 734.75,-1137.76 734.75,-1137.76 734.75,-1123.36 734.75,-1123.36 734.75,-1117.36 740.75,-1111.36 746.75,-1111.36 746.75,-1111.36 890.54,-1111.36 890.54,-1111.36 896.54,-1111.36 902.54,-1117.36 902.54,-1123.36 902.54,-1123.36 902.54,-1137.76 902.54,-1137.76 902.54,-1143.76 896.54,-1149.76 890.54,-1149.76"/>
<text xml:space="preserve" text-anchor="middle" x="818.64" y="-1132.11" font-family="Helvetica,sans-Serif" font-size="11.00" fill="#1a1c1f">Planner or convergence agent</text>
<text xml:space="preserve" text-anchor="middle" x="818.64" y="-1120.11" font-family="Helvetica,sans-Serif" font-size="11.00" fill="#1a1c1f">constructs candidate merge</text>
</g>
<!-- INTEGRATION -->
<g id="node38" class="node">
<title>INTEGRATION</title>
<path fill="#e1f6e8" stroke="#299052" stroke-width="2" d="M1031.41,-1070.36C1031.41,-1070.36 937.88,-1070.36 937.88,-1070.36 931.88,-1070.36 925.88,-1064.36 925.88,-1058.36 925.88,-1058.36 925.88,-1043.96 925.88,-1043.96 925.88,-1037.96 931.88,-1031.96 937.88,-1031.96 937.88,-1031.96 1031.41,-1031.96 1031.41,-1031.96 1037.41,-1031.96 1043.41,-1037.96 1043.41,-1043.96 1043.41,-1043.96 1043.41,-1058.36 1043.41,-1058.36 1043.41,-1064.36 1037.41,-1070.36 1031.41,-1070.36"/>
<text xml:space="preserve" text-anchor="middle" x="984.64" y="-1052.71" font-family="Helvetica,sans-Serif" font-size="11.00" fill="#1a1c1f">Run integration and</text>
<text xml:space="preserve" text-anchor="middle" x="984.64" y="-1040.71" font-family="Helvetica,sans-Serif" font-size="11.00" fill="#1a1c1f">parent&#45;goal tests</text>
</g>
<!-- CONVERGE&#45;&gt;INTEGRATION -->
<g id="edge47" class="edge">
<title>CONVERGE&#45;&gt;INTEGRATION</title>
<path fill="none" stroke="#555f6b" stroke-width="1.35" d="M879.21,-1110.48C879.21,-1086.91 879.21,-1051 879.21,-1051 879.21,-1051 916.1,-1051 916.1,-1051"/>
<polygon fill="#555f6b" stroke="#555f6b" stroke-width="1.35" points="916.1,-1053.45 923.1,-1051 916.1,-1048.55 916.1,-1053.45"/>
</g>
<!-- SPLIT -->
<g id="node9" class="node">
<title>SPLIT</title>
<path fill="#fef0e5" stroke="#f3883b" stroke-width="2" d="M1040.66,-2528.4C1040.66,-2528.4 852.62,-2528.4 852.62,-2528.4 846.62,-2528.4 840.62,-2522.4 840.62,-2516.4 840.62,-2516.4 840.62,-2502 840.62,-2502 840.62,-2496 846.62,-2490 852.62,-2490 852.62,-2490 1040.66,-2490 1040.66,-2490 1046.66,-2490 1052.66,-2496 1052.66,-2502 1052.66,-2502 1052.66,-2516.4 1052.66,-2516.4 1052.66,-2522.4 1046.66,-2528.4 1040.66,-2528.4"/>
<text xml:space="preserve" text-anchor="middle" x="946.64" y="-2510.75" font-family="Helvetica,sans-Serif" font-size="11.00" fill="#1a1c1f">BRAID: Record delegation contract</text>
<text xml:space="preserve" text-anchor="middle" x="946.64" y="-2498.75" font-family="Helvetica,sans-Serif" font-size="11.00" fill="#1a1c1f">Scope A + Scope B + shared invariants</text>
</g>
<!-- CLAIM&#45;&gt;SPLIT -->
<g id="edge5" class="edge">
<title>CLAIM&#45;&gt;SPLIT</title>
<path fill="none" stroke="#555f6b" stroke-width="1.35" d="M984.52,-2568.47C984.52,-2568.47 984.52,-2538.37 984.52,-2538.37"/>
<polygon fill="#555f6b" stroke="#555f6b" stroke-width="1.35" points="986.97,-2538.37 984.52,-2531.37 982.07,-2538.37 986.97,-2538.37"/>
</g>
<!-- DISPATCH -->
<g id="node10" class="node">
<title>DISPATCH</title>
<path fill="#fef0e5" stroke="#f3883b" stroke-width="2" d="M908.91,-2449C908.91,-2449 728.38,-2449 728.38,-2449 722.38,-2449 716.38,-2443 716.38,-2437 716.38,-2437 716.38,-2422.6 716.38,-2422.6 716.38,-2416.6 722.38,-2410.6 728.38,-2410.6 728.38,-2410.6 908.91,-2410.6 908.91,-2410.6 914.91,-2410.6 920.91,-2416.6 920.91,-2422.6 920.91,-2422.6 920.91,-2437 920.91,-2437 920.91,-2443 914.91,-2449 908.91,-2449"/>
<text xml:space="preserve" text-anchor="middle" x="818.64" y="-2431.35" font-family="Helvetica,sans-Serif" font-size="11.00" fill="#1a1c1f">BRAID: Dispatch two thread identities</text>
<text xml:space="preserve" text-anchor="middle" x="818.64" y="-2419.35" font-family="Helvetica,sans-Serif" font-size="11.00" fill="#1a1c1f">and convergence requirements</text>
</g>
<!-- SPLIT&#45;&gt;DISPATCH -->
<g id="edge6" class="edge">
<title>SPLIT&#45;&gt;DISPATCH</title>
<path fill="none" stroke="#555f6b" stroke-width="1.35" d="M880.77,-2489.16C880.77,-2489.16 880.77,-2458.87 880.77,-2458.87"/>
<polygon fill="#555f6b" stroke="#555f6b" stroke-width="1.35" points="883.22,-2458.87 880.77,-2451.87 878.32,-2458.87 883.22,-2458.87"/>
</g>
<!-- PA -->
<g id="node11" class="node">
<title>PA</title>
<path fill="#dceeff" stroke="#339cff" stroke-width="2" d="M355.66,-2302.6C355.66,-2302.6 269.62,-2302.6 269.62,-2302.6 263.62,-2302.6 257.62,-2296.6 257.62,-2290.6 257.62,-2290.6 257.62,-2278.6 257.62,-2278.6 257.62,-2272.6 263.62,-2266.6 269.62,-2266.6 269.62,-2266.6 355.66,-2266.6 355.66,-2266.6 361.66,-2266.6 367.66,-2272.6 367.66,-2278.6 367.66,-2278.6 367.66,-2290.6 367.66,-2290.6 367.66,-2296.6 361.66,-2302.6 355.66,-2302.6"/>
<text xml:space="preserve" text-anchor="middle" x="312.64" y="-2280.15" font-family="Helvetica,sans-Serif" font-size="11.00" fill="#1a1c1f">Pipeline A planner</text>
</g>
<!-- DISPATCH&#45;&gt;PA -->
<g id="edge27" class="edge">
<title>DISPATCH&#45;&gt;PA</title>
<path fill="none" stroke="#555f6b" stroke-width="1.35" d="M720.31,-2409.67C720.31,-2369.88 720.31,-2285 720.31,-2285 720.31,-2285 377.52,-2285 377.52,-2285"/>
<polygon fill="#555f6b" stroke="#555f6b" stroke-width="1.35" points="377.52,-2282.55 370.52,-2285 377.52,-2287.45 377.52,-2282.55"/>
</g>
<!-- PB -->
<g id="node19" class="node">
<title>PB</title>
<path fill="#dceeff" stroke="#339cff" stroke-width="2" d="M862.04,-2302.6C862.04,-2302.6 775.25,-2302.6 775.25,-2302.6 769.25,-2302.6 763.25,-2296.6 763.25,-2290.6 763.25,-2290.6 763.25,-2278.6 763.25,-2278.6 763.25,-2272.6 769.25,-2266.6 775.25,-2266.6 775.25,-2266.6 862.04,-2266.6 862.04,-2266.6 868.04,-2266.6 874.04,-2272.6 874.04,-2278.6 874.04,-2278.6 874.04,-2290.6 874.04,-2290.6 874.04,-2296.6 868.04,-2302.6 862.04,-2302.6"/>
<text xml:space="preserve" text-anchor="middle" x="818.64" y="-2280.15" font-family="Helvetica,sans-Serif" font-size="11.00" fill="#1a1c1f">Pipeline B planner</text>
</g>
<!-- DISPATCH&#45;&gt;PB -->
<g id="edge28" class="edge">
<title>DISPATCH&#45;&gt;PB</title>
<path fill="none" stroke="#555f6b" stroke-width="1.35" d="M818.64,-2409.61C818.64,-2409.61 818.64,-2312.28 818.64,-2312.28"/>
<polygon fill="#555f6b" stroke="#555f6b" stroke-width="1.35" points="821.1,-2312.28 818.65,-2305.28 816.2,-2312.28 821.1,-2312.28"/>
</g>
<!-- IA -->
<g id="node12" class="node">
<title>IA</title>
<path fill="#dceeff" stroke="#339cff" stroke-width="2" d="M372.04,-2225.6C372.04,-2225.6 303.25,-2225.6 303.25,-2225.6 297.25,-2225.6 291.25,-2219.6 291.25,-2213.6 291.25,-2213.6 291.25,-2201.6 291.25,-2201.6 291.25,-2195.6 297.25,-2189.6 303.25,-2189.6 303.25,-2189.6 372.04,-2189.6 372.04,-2189.6 378.04,-2189.6 384.04,-2195.6 384.04,-2201.6 384.04,-2201.6 384.04,-2213.6 384.04,-2213.6 384.04,-2219.6 378.04,-2225.6 372.04,-2225.6"/>
<text xml:space="preserve" text-anchor="middle" x="337.64" y="-2203.15" font-family="Helvetica,sans-Serif" font-size="11.00" fill="#1a1c1f">Implementer A</text>
</g>
<!-- PA&#45;&gt;IA -->
<g id="edge7" class="edge">
<title>PA&#45;&gt;IA</title>
<path fill="none" stroke="#555f6b" stroke-width="1.35" d="M329.46,-2265.96C329.46,-2265.96 329.46,-2235.38 329.46,-2235.38"/>
<polygon fill="#555f6b" stroke="#555f6b" stroke-width="1.35" points="331.91,-2235.38 329.46,-2228.38 327.01,-2235.38 331.91,-2235.38"/>
</g>
<!-- CA -->
<g id="node27" class="node">
<title>CA</title>
<path fill="#fef0e5" stroke="#f3883b" stroke-width="2" d="M139.29,-2169.6C139.29,-2169.6 12,-2169.6 12,-2169.6 6,-2169.6 0,-2163.6 0,-2157.6 0,-2157.6 0,-2143.2 0,-2143.2 0,-2137.2 6,-2131.2 12,-2131.2 12,-2131.2 139.29,-2131.2 139.29,-2131.2 145.29,-2131.2 151.29,-2137.2 151.29,-2143.2 151.29,-2143.2 151.29,-2157.6 151.29,-2157.6 151.29,-2163.6 145.29,-2169.6 139.29,-2169.6"/>
<text xml:space="preserve" text-anchor="middle" x="75.64" y="-2151.95" font-family="Helvetica,sans-Serif" font-size="11.00" fill="#1a1c1f">BRAID: Capture session A</text>
<text xml:space="preserve" text-anchor="middle" x="75.64" y="-2139.95" font-family="Helvetica,sans-Serif" font-size="11.00" fill="#1a1c1f">intent and WorkEvents</text>
</g>
<!-- PA&#45;&gt;CA -->
<g id="edge29" class="edge">
<title>PA&#45;&gt;CA</title>
<path fill="none" stroke="#555f6b" stroke-width="1.35" d="M261.65,-2265.6C261.65,-2228.5 261.65,-2150 261.65,-2150 261.65,-2150 161.15,-2150 161.15,-2150"/>
<polygon fill="#555f6b" stroke="#555f6b" stroke-width="1.35" points="161.15,-2147.55 154.15,-2150 161.15,-2152.45 161.15,-2147.55"/>
</g>
<!-- TA -->
<g id="node13" class="node">
<title>TA</title>
<path fill="#dceeff" stroke="#339cff" stroke-width="2" d="M356.66,-2111.2C356.66,-2111.2 318.62,-2111.2 318.62,-2111.2 312.62,-2111.2 306.62,-2105.2 306.62,-2099.2 306.62,-2099.2 306.62,-2087.2 306.62,-2087.2 306.62,-2081.2 312.62,-2075.2 318.62,-2075.2 318.62,-2075.2 356.66,-2075.2 356.66,-2075.2 362.66,-2075.2 368.66,-2081.2 368.66,-2087.2 368.66,-2087.2 368.66,-2099.2 368.66,-2099.2 368.66,-2105.2 362.66,-2111.2 356.66,-2111.2"/>
<text xml:space="preserve" text-anchor="middle" x="337.64" y="-2088.75" font-family="Helvetica,sans-Serif" font-size="11.00" fill="#1a1c1f">Tester A</text>
</g>
<!-- IA&#45;&gt;TA -->
<g id="edge8" class="edge">
<title>IA&#45;&gt;TA</title>
<path fill="none" stroke="#555f6b" stroke-width="1.35" d="M337.64,-2188.71C337.64,-2188.71 337.64,-2121.16 337.64,-2121.16"/>
<polygon fill="#555f6b" stroke="#555f6b" stroke-width="1.35" points="340.1,-2121.16 337.65,-2114.16 335.2,-2121.16 340.1,-2121.16"/>
</g>
<!-- VA -->
<g id="node14" class="node">
<title>VA</title>
<path fill="#dceeff" stroke="#339cff" stroke-width="2" d="M326,-1993.89C326,-1993.89 277.31,-1981.71 277.31,-1981.71 271.49,-1980.26 271.49,-1977.34 277.31,-1975.89 277.31,-1975.89 326,-1963.71 326,-1963.71 331.82,-1962.26 343.47,-1962.26 349.29,-1963.71 349.29,-1963.71 397.98,-1975.89 397.98,-1975.89 403.8,-1977.34 403.8,-1980.26 397.98,-1981.71 397.98,-1981.71 349.29,-1993.89 349.29,-1993.89 343.47,-1995.34 331.82,-1995.34 326,-1993.89"/>
<text xml:space="preserve" text-anchor="middle" x="337.64" y="-1974.35" font-family="Helvetica,sans-Serif" font-size="11.00" fill="#1a1c1f">Thread verdict</text>
</g>
<!-- TA&#45;&gt;VA -->
<g id="edge9" class="edge">
<title>TA&#45;&gt;VA</title>
<path fill="none" stroke="#555f6b" stroke-width="1.35" d="M337.64,-2074.31C337.64,-2074.31 337.64,-2006.76 337.64,-2006.76"/>
<polygon fill="#555f6b" stroke="#555f6b" stroke-width="1.35" points="340.1,-2006.76 337.65,-1999.76 335.2,-2006.76 340.1,-2006.76"/>
</g>
<!-- RTA -->
<g id="node15" class="node">
<title>RTA</title>
<path fill="#dceeff" stroke="#339cff" stroke-width="2" d="M524.66,-1896.41C524.66,-1896.41 402.62,-1896.41 402.62,-1896.41 396.62,-1896.41 390.62,-1890.41 390.62,-1884.41 390.62,-1884.41 390.62,-1872.41 390.62,-1872.41 390.62,-1866.41 396.62,-1860.41 402.62,-1860.41 402.62,-1860.41 524.66,-1860.41 524.66,-1860.41 530.66,-1860.41 536.66,-1866.41 536.66,-1872.41 536.66,-1872.41 536.66,-1884.41 536.66,-1884.41 536.66,-1890.41 530.66,-1896.41 524.66,-1896.41"/>
<text xml:space="preserve" text-anchor="middle" x="463.64" y="-1873.96" font-family="Helvetica,sans-Serif" font-size="11.00" fill="#1a1c1f">Retry, replace or escalate</text>
</g>
<!-- VA&#45;&gt;RTA -->
<g id="edge11" class="edge">
<title>VA&#45;&gt;RTA</title>
<path fill="none" stroke="#555f6b" stroke-width="1.35" d="M400.12,-1975.46C400.12,-1975.46 400.12,-1906.03 400.12,-1906.03"/>
<polygon fill="#555f6b" stroke="#555f6b" stroke-width="1.35" points="402.57,-1906.03 400.12,-1899.03 397.67,-1906.03 402.57,-1906.03"/>
<text xml:space="preserve" text-anchor="middle" x="404.89" y="-1932.25" font-family="Helvetica,sans-Serif" font-size="9.00" fill="#343a40">Failed or needs human</text>
</g>
<!-- RA -->
<g id="node16" class="node">
<title>RA</title>
<path fill="#dceeff" stroke="#339cff" stroke-width="2" d="M281.66,-1906.23C281.66,-1906.23 229.23,-1883.23 229.23,-1883.23 223.74,-1880.82 223.74,-1876 229.23,-1873.59 229.23,-1873.59 281.66,-1850.59 281.66,-1850.59 287.15,-1848.18 298.14,-1848.18 303.63,-1850.59 303.63,-1850.59 356.06,-1873.59 356.06,-1873.59 361.55,-1876 361.55,-1880.82 356.06,-1883.23 356.06,-1883.23 303.63,-1906.23 303.63,-1906.23 298.14,-1908.64 287.15,-1908.64 281.66,-1906.23"/>
<text xml:space="preserve" text-anchor="middle" x="292.64" y="-1879.96" font-family="Helvetica,sans-Serif" font-size="11.00" fill="#1a1c1f">Local review</text>
<text xml:space="preserve" text-anchor="middle" x="292.64" y="-1867.96" font-family="Helvetica,sans-Serif" font-size="11.00" fill="#1a1c1f">configured?</text>
</g>
<!-- VA&#45;&gt;RA -->
<g id="edge10" class="edge">
<title>VA&#45;&gt;RA</title>
<path fill="none" stroke="#555f6b" stroke-width="1.35" d="M316.36,-1965.26C316.36,-1965.26 316.36,-1910.75 316.36,-1910.75"/>
<polygon fill="#555f6b" stroke="#555f6b" stroke-width="1.35" points="318.81,-1910.75 316.36,-1903.75 313.91,-1910.75 318.81,-1910.75"/>
<text xml:space="preserve" text-anchor="middle" x="309.02" y="-1932.25" font-family="Helvetica,sans-Serif" font-size="9.00" fill="#343a40">Passed</text>
</g>
<!-- RTA&#45;&gt;IA -->
<g id="edge12" class="edge">
<title>RTA&#45;&gt;IA</title>
<path fill="none" stroke="#555f6b" stroke-width="1.35" d="M473.14,-1897.07C473.14,-1966.8 473.14,-2208 473.14,-2208 473.14,-2208 394.08,-2208 394.08,-2208"/>
<polygon fill="#555f6b" stroke="#555f6b" stroke-width="1.35" points="394.08,-2205.55 387.08,-2208 394.08,-2210.45 394.08,-2205.55"/>
<text xml:space="preserve" text-anchor="middle" x="498.14" y="-2032.33" font-family="Helvetica,sans-Serif" font-size="9.00" fill="#343a40">Retry same thread</text>
</g>
<!-- OA -->
<g id="node18" class="node">
<title>OA</title>
<path fill="#dceeff" stroke="#339cff" stroke-width="2" d="M460.04,-1719.02C460.04,-1719.02 337.25,-1719.02 337.25,-1719.02 331.25,-1719.02 325.25,-1713.02 325.25,-1707.02 325.25,-1707.02 325.25,-1695.02 325.25,-1695.02 325.25,-1689.02 331.25,-1683.02 337.25,-1683.02 337.25,-1683.02 460.04,-1683.02 460.04,-1683.02 466.04,-1683.02 472.04,-1689.02 472.04,-1695.02 472.04,-1695.02 472.04,-1707.02 472.04,-1707.02 472.04,-1713.02 466.04,-1719.02 460.04,-1719.02"/>
<text xml:space="preserve" text-anchor="middle" x="398.64" y="-1696.57" font-family="Helvetica,sans-Serif" font-size="11.00" fill="#1a1c1f">Branch A + tests + verdict</text>
</g>
<!-- RTA&#45;&gt;OA -->
<g id="edge13" class="edge">
<title>RTA&#45;&gt;OA</title>
<path fill="none" stroke="#555f6b" stroke-width="1.35" d="M431.33,-1859.43C431.33,-1859.43 431.33,-1728.91 431.33,-1728.91"/>
<polygon fill="#555f6b" stroke="#555f6b" stroke-width="1.35" points="433.78,-1728.91 431.33,-1721.91 428.88,-1728.91 433.78,-1728.91"/>
<text xml:space="preserve" text-anchor="middle" x="496.64" y="-1774.35" font-family="Helvetica,sans-Serif" font-size="9.00" fill="#343a40">Close unresolved</text>
</g>
<!-- LRA -->
<g id="node17" class="node">
<title>LRA</title>
<path fill="#dceeff" stroke="#339cff" stroke-width="2" d="M338.29,-1796.02C338.29,-1796.02 247,-1796.02 247,-1796.02 241,-1796.02 235,-1790.02 235,-1784.02 235,-1784.02 235,-1772.02 235,-1772.02 235,-1766.02 241,-1760.02 247,-1760.02 247,-1760.02 338.29,-1760.02 338.29,-1760.02 344.29,-1760.02 350.29,-1766.02 350.29,-1772.02 350.29,-1772.02 350.29,-1784.02 350.29,-1784.02 350.29,-1790.02 344.29,-1796.02 338.29,-1796.02"/>
<text xml:space="preserve" text-anchor="middle" x="292.64" y="-1773.57" font-family="Helvetica,sans-Serif" font-size="11.00" fill="#1a1c1f">Pipeline reviewer A</text>
</g>
<!-- RA&#45;&gt;LRA -->
<g id="edge14" class="edge">
<title>RA&#45;&gt;LRA</title>
<path fill="none" stroke="#555f6b" stroke-width="1.35" d="M292.64,-1844.7C292.64,-1844.7 292.64,-1805.91 292.64,-1805.91"/>
<polygon fill="#555f6b" stroke="#555f6b" stroke-width="1.35" points="295.1,-1805.91 292.65,-1798.91 290.2,-1805.91 295.1,-1805.91"/>
<text xml:space="preserve" text-anchor="middle" x="299.77" y="-1817.22" font-family="Helvetica,sans-Serif" font-size="9.00" fill="#343a40">Yes</text>
</g>
<!-- RA&#45;&gt;OA -->
<g id="edge15" class="edge">
<title>RA&#45;&gt;OA</title>
<path fill="none" stroke="#555f6b" stroke-width="1.35" d="M358.67,-1873.67C358.67,-1873.67 358.67,-1728.97 358.67,-1728.97"/>
<polygon fill="#555f6b" stroke="#555f6b" stroke-width="1.35" points="361.12,-1728.97 358.67,-1721.97 356.22,-1728.97 361.12,-1728.97"/>
<text xml:space="preserve" text-anchor="middle" x="404.64" y="-1774.35" font-family="Helvetica,sans-Serif" font-size="9.00" fill="#343a40">No</text>
</g>
<!-- LRA&#45;&gt;OA -->
<g id="edge16" class="edge">
<title>LRA&#45;&gt;OA</title>
<path fill="none" stroke="#555f6b" stroke-width="1.35" d="M337.77,-1759.38C337.77,-1759.38 337.77,-1728.8 337.77,-1728.8"/>
<polygon fill="#555f6b" stroke="#555f6b" stroke-width="1.35" points="340.22,-1728.8 337.77,-1721.8 335.32,-1728.8 340.22,-1728.8"/>
</g>
<!-- AA -->
<g id="node29" class="node">
<title>AA</title>
<path fill="#fef0e5" stroke="#f3883b" stroke-width="2" d="M457.79,-1618.02C457.79,-1618.02 339.5,-1618.02 339.5,-1618.02 333.5,-1618.02 327.5,-1612.02 327.5,-1606.02 327.5,-1606.02 327.5,-1591.62 327.5,-1591.62 327.5,-1585.62 333.5,-1579.62 339.5,-1579.62 339.5,-1579.62 457.79,-1579.62 457.79,-1579.62 463.79,-1579.62 469.79,-1585.62 469.79,-1591.62 469.79,-1591.62 469.79,-1606.02 469.79,-1606.02 469.79,-1612.02 463.79,-1618.02 457.79,-1618.02"/>
<text xml:space="preserve" text-anchor="middle" x="398.64" y="-1600.37" font-family="Helvetica,sans-Serif" font-size="11.00" fill="#1a1c1f">BRAID: Attach session A</text>
<text xml:space="preserve" text-anchor="middle" x="398.64" y="-1588.37" font-family="Helvetica,sans-Serif" font-size="11.00" fill="#1a1c1f">to delegated thread A</text>
</g>
<!-- OA&#45;&gt;AA -->
<g id="edge33" class="edge">
<title>OA&#45;&gt;AA</title>
<path fill="none" stroke="#555f6b" stroke-width="1.35" d="M398.64,-1682.27C398.64,-1682.27 398.64,-1627.89 398.64,-1627.89"/>
<polygon fill="#555f6b" stroke="#555f6b" stroke-width="1.35" points="401.1,-1627.89 398.65,-1620.89 396.2,-1627.89 401.1,-1627.89"/>
</g>
<!-- IB -->
<g id="node20" class="node">
<title>IB</title>
<path fill="#dceeff" stroke="#339cff" stroke-width="2" d="M853.41,-2225.6C853.41,-2225.6 783.88,-2225.6 783.88,-2225.6 777.88,-2225.6 771.88,-2219.6 771.88,-2213.6 771.88,-2213.6 771.88,-2201.6 771.88,-2201.6 771.88,-2195.6 777.88,-2189.6 783.88,-2189.6 783.88,-2189.6 853.41,-2189.6 853.41,-2189.6 859.41,-2189.6 865.41,-2195.6 865.41,-2201.6 865.41,-2201.6 865.41,-2213.6 865.41,-2213.6 865.41,-2219.6 859.41,-2225.6 853.41,-2225.6"/>
<text xml:space="preserve" text-anchor="middle" x="818.64" y="-2203.15" font-family="Helvetica,sans-Serif" font-size="11.00" fill="#1a1c1f">Implementer B</text>
</g>
<!-- PB&#45;&gt;IB -->
<g id="edge17" class="edge">
<title>PB&#45;&gt;IB</title>
<path fill="none" stroke="#555f6b" stroke-width="1.35" d="M818.64,-2265.96C818.64,-2265.96 818.64,-2235.38 818.64,-2235.38"/>
<polygon fill="#555f6b" stroke="#555f6b" stroke-width="1.35" points="821.1,-2235.38 818.65,-2228.38 816.2,-2235.38 821.1,-2235.38"/>
</g>
<!-- CB -->
<g id="node28" class="node">
<title>CB</title>
<path fill="#fef0e5" stroke="#f3883b" stroke-width="2" d="M1102.66,-2055.2C1102.66,-2055.2 974.62,-2055.2 974.62,-2055.2 968.62,-2055.2 962.62,-2049.2 962.62,-2043.2 962.62,-2043.2 962.62,-2028.8 962.62,-2028.8 962.62,-2022.8 968.62,-2016.8 974.62,-2016.8 974.62,-2016.8 1102.66,-2016.8 1102.66,-2016.8 1108.66,-2016.8 1114.66,-2022.8 1114.66,-2028.8 1114.66,-2028.8 1114.66,-2043.2 1114.66,-2043.2 1114.66,-2049.2 1108.66,-2055.2 1102.66,-2055.2"/>
<text xml:space="preserve" text-anchor="middle" x="1038.64" y="-2037.55" font-family="Helvetica,sans-Serif" font-size="11.00" fill="#1a1c1f">BRAID: Capture session B</text>
<text xml:space="preserve" text-anchor="middle" x="1038.64" y="-2025.55" font-family="Helvetica,sans-Serif" font-size="11.00" fill="#1a1c1f">intent and WorkEvents</text>
</g>
<!-- PB&#45;&gt;CB -->
<g id="edge30" class="edge">
<title>PB&#45;&gt;CB</title>
<path fill="none" stroke="#555f6b" stroke-width="1.35" d="M869.73,-2265.91C869.73,-2208.1 869.73,-2036 869.73,-2036 869.73,-2036 953.05,-2036 953.05,-2036"/>
<polygon fill="#555f6b" stroke="#555f6b" stroke-width="1.35" points="953.05,-2038.45 960.05,-2036 953.05,-2033.55 953.05,-2038.45"/>
</g>
<!-- TB -->
<g id="node21" class="node">
<title>TB</title>
<path fill="#dceeff" stroke="#339cff" stroke-width="2" d="M775.04,-2111.2C775.04,-2111.2 736.25,-2111.2 736.25,-2111.2 730.25,-2111.2 724.25,-2105.2 724.25,-2099.2 724.25,-2099.2 724.25,-2087.2 724.25,-2087.2 724.25,-2081.2 730.25,-2075.2 736.25,-2075.2 736.25,-2075.2 775.04,-2075.2 775.04,-2075.2 781.04,-2075.2 787.04,-2081.2 787.04,-2087.2 787.04,-2087.2 787.04,-2099.2 787.04,-2099.2 787.04,-2105.2 781.04,-2111.2 775.04,-2111.2"/>
<text xml:space="preserve" text-anchor="middle" x="755.64" y="-2088.75" font-family="Helvetica,sans-Serif" font-size="11.00" fill="#1a1c1f">Tester B</text>
</g>
<!-- IB&#45;&gt;TB -->
<g id="edge18" class="edge">
<title>IB&#45;&gt;TB</title>
<path fill="none" stroke="#555f6b" stroke-width="1.35" d="M779.46,-2188.71C779.46,-2188.71 779.46,-2121.16 779.46,-2121.16"/>
<polygon fill="#555f6b" stroke="#555f6b" stroke-width="1.35" points="781.91,-2121.16 779.46,-2114.16 777.01,-2121.16 781.91,-2121.16"/>
</g>
<!-- VB -->
<g id="node22" class="node">
<title>VB</title>
<path fill="#dceeff" stroke="#339cff" stroke-width="2" d="M721,-1993.89C721,-1993.89 672.31,-1981.71 672.31,-1981.71 666.49,-1980.26 666.49,-1977.34 672.31,-1975.89 672.31,-1975.89 721,-1963.71 721,-1963.71 726.82,-1962.26 738.47,-1962.26 744.29,-1963.71 744.29,-1963.71 792.98,-1975.89 792.98,-1975.89 798.8,-1977.34 798.8,-1980.26 792.98,-1981.71 792.98,-1981.71 744.29,-1993.89 744.29,-1993.89 738.47,-1995.34 726.82,-1995.34 721,-1993.89"/>
<text xml:space="preserve" text-anchor="middle" x="732.64" y="-1974.35" font-family="Helvetica,sans-Serif" font-size="11.00" fill="#1a1c1f">Thread verdict</text>
</g>
<!-- TB&#45;&gt;VB -->
<g id="edge19" class="edge">
<title>TB&#45;&gt;VB</title>
<path fill="none" stroke="#555f6b" stroke-width="1.35" d="M755.64,-2074.31C755.64,-2074.31 755.64,-2001.05 755.64,-2001.05"/>
<polygon fill="#555f6b" stroke="#555f6b" stroke-width="1.35" points="758.1,-2001.05 755.65,-1994.05 753.2,-2001.05 758.1,-2001.05"/>
</g>
<!-- RTB -->
<g id="node23" class="node">
<title>RTB</title>
<path fill="#dceeff" stroke="#339cff" stroke-width="2" d="M896.66,-1896.41C896.66,-1896.41 774.62,-1896.41 774.62,-1896.41 768.62,-1896.41 762.62,-1890.41 762.62,-1884.41 762.62,-1884.41 762.62,-1872.41 762.62,-1872.41 762.62,-1866.41 768.62,-1860.41 774.62,-1860.41 774.62,-1860.41 896.66,-1860.41 896.66,-1860.41 902.66,-1860.41 908.66,-1866.41 908.66,-1872.41 908.66,-1872.41 908.66,-1884.41 908.66,-1884.41 908.66,-1890.41 902.66,-1896.41 896.66,-1896.41"/>
<text xml:space="preserve" text-anchor="middle" x="835.64" y="-1873.96" font-family="Helvetica,sans-Serif" font-size="11.00" fill="#1a1c1f">Retry, replace or escalate</text>
</g>
<!-- VB&#45;&gt;RTB -->
<g id="edge21" class="edge">
<title>VB&#45;&gt;RTB</title>
<path fill="none" stroke="#555f6b" stroke-width="1.35" d="M783.62,-1972.52C783.62,-1972.52 783.62,-1906.43 783.62,-1906.43"/>
<polygon fill="#555f6b" stroke="#555f6b" stroke-width="1.35" points="786.07,-1906.43 783.62,-1899.43 781.17,-1906.43 786.07,-1906.43"/>
<text xml:space="preserve" text-anchor="middle" x="779.89" y="-1932.25" font-family="Helvetica,sans-Serif" font-size="9.00" fill="#343a40">Failed or needs human</text>
</g>
<!-- RB -->
<g id="node24" class="node">
<title>RB</title>
<path fill="#dceeff" stroke="#339cff" stroke-width="2" d="M653.66,-1906.23C653.66,-1906.23 601.23,-1883.23 601.23,-1883.23 595.74,-1880.82 595.74,-1876 601.23,-1873.59 601.23,-1873.59 653.66,-1850.59 653.66,-1850.59 659.15,-1848.18 670.14,-1848.18 675.63,-1850.59 675.63,-1850.59 728.06,-1873.59 728.06,-1873.59 733.55,-1876 733.55,-1880.82 728.06,-1883.23 728.06,-1883.23 675.63,-1906.23 675.63,-1906.23 670.14,-1908.64 659.15,-1908.64 653.66,-1906.23"/>
<text xml:space="preserve" text-anchor="middle" x="664.64" y="-1879.96" font-family="Helvetica,sans-Serif" font-size="11.00" fill="#1a1c1f">Local review</text>
<text xml:space="preserve" text-anchor="middle" x="664.64" y="-1867.96" font-family="Helvetica,sans-Serif" font-size="11.00" fill="#1a1c1f">configured?</text>
</g>
<!-- VB&#45;&gt;RB -->
<g id="edge20" class="edge">
<title>VB&#45;&gt;RB</title>
<path fill="none" stroke="#555f6b" stroke-width="1.35" d="M699.86,-1968.06C699.86,-1968.06 699.86,-1905.55 699.86,-1905.55"/>
<polygon fill="#555f6b" stroke="#555f6b" stroke-width="1.35" points="702.31,-1905.55 699.86,-1898.55 697.41,-1905.55 702.31,-1905.55"/>
<text xml:space="preserve" text-anchor="middle" x="684.02" y="-1932.25" font-family="Helvetica,sans-Serif" font-size="9.00" fill="#343a40">Passed</text>
</g>
<!-- RTB&#45;&gt;IB -->
<g id="edge22" class="edge">
<title>RTB&#45;&gt;IB</title>
<path fill="none" stroke="#555f6b" stroke-width="1.35" d="M835.02,-1897.05C835.02,-1897.05 835.02,-2179.71 835.02,-2179.71"/>
<polygon fill="#555f6b" stroke="#555f6b" stroke-width="1.35" points="832.57,-2179.71 835.02,-2186.71 837.47,-2179.71 832.57,-2179.71"/>
<text xml:space="preserve" text-anchor="middle" x="871.14" y="-2032.33" font-family="Helvetica,sans-Serif" font-size="9.00" fill="#343a40">Retry same thread</text>
</g>
<!-- OB -->
<g id="node26" class="node">
<title>OB</title>
<path fill="#dceeff" stroke="#339cff" stroke-width="2" d="M832.41,-1719.02C832.41,-1719.02 708.88,-1719.02 708.88,-1719.02 702.88,-1719.02 696.88,-1713.02 696.88,-1707.02 696.88,-1707.02 696.88,-1695.02 696.88,-1695.02 696.88,-1689.02 702.88,-1683.02 708.88,-1683.02 708.88,-1683.02 832.41,-1683.02 832.41,-1683.02 838.41,-1683.02 844.41,-1689.02 844.41,-1695.02 844.41,-1695.02 844.41,-1707.02 844.41,-1707.02 844.41,-1713.02 838.41,-1719.02 832.41,-1719.02"/>
<text xml:space="preserve" text-anchor="middle" x="770.64" y="-1696.57" font-family="Helvetica,sans-Serif" font-size="11.00" fill="#1a1c1f">Branch B + tests + verdict</text>
</g>
<!-- RTB&#45;&gt;OB -->
<g id="edge23" class="edge">
<title>RTB&#45;&gt;OB</title>
<path fill="none" stroke="#555f6b" stroke-width="1.35" d="M803.52,-1859.43C803.52,-1859.43 803.52,-1728.91 803.52,-1728.91"/>
<polygon fill="#555f6b" stroke="#555f6b" stroke-width="1.35" points="805.97,-1728.91 803.52,-1721.91 801.07,-1728.91 805.97,-1728.91"/>
<text xml:space="preserve" text-anchor="middle" x="868.64" y="-1774.35" font-family="Helvetica,sans-Serif" font-size="9.00" fill="#343a40">Close unresolved</text>
</g>
<!-- LRB -->
<g id="node25" class="node">
<title>LRB</title>
<path fill="#dceeff" stroke="#339cff" stroke-width="2" d="M710.66,-1796.02C710.66,-1796.02 618.62,-1796.02 618.62,-1796.02 612.62,-1796.02 606.62,-1790.02 606.62,-1784.02 606.62,-1784.02 606.62,-1772.02 606.62,-1772.02 606.62,-1766.02 612.62,-1760.02 618.62,-1760.02 618.62,-1760.02 710.66,-1760.02 710.66,-1760.02 716.66,-1760.02 722.66,-1766.02 722.66,-1772.02 722.66,-1772.02 722.66,-1784.02 722.66,-1784.02 722.66,-1790.02 716.66,-1796.02 710.66,-1796.02"/>
<text xml:space="preserve" text-anchor="middle" x="664.64" y="-1773.57" font-family="Helvetica,sans-Serif" font-size="11.00" fill="#1a1c1f">Pipeline reviewer B</text>
</g>
<!-- RB&#45;&gt;LRB -->
<g id="edge24" class="edge">
<title>RB&#45;&gt;LRB</title>
<path fill="none" stroke="#555f6b" stroke-width="1.35" d="M664.64,-1844.7C664.64,-1844.7 664.64,-1805.91 664.64,-1805.91"/>
<polygon fill="#555f6b" stroke="#555f6b" stroke-width="1.35" points="667.1,-1805.91 664.65,-1798.91 662.2,-1805.91 667.1,-1805.91"/>
<text xml:space="preserve" text-anchor="middle" x="671.77" y="-1817.22" font-family="Helvetica,sans-Serif" font-size="9.00" fill="#343a40">Yes</text>
</g>
<!-- RB&#45;&gt;OB -->
<g id="edge25" class="edge">
<title>RB&#45;&gt;OB</title>
<path fill="none" stroke="#555f6b" stroke-width="1.35" d="M730.86,-1874.03C730.86,-1874.03 730.86,-1728.82 730.86,-1728.82"/>
<polygon fill="#555f6b" stroke="#555f6b" stroke-width="1.35" points="733.31,-1728.82 730.86,-1721.82 728.41,-1728.82 733.31,-1728.82"/>
<text xml:space="preserve" text-anchor="middle" x="776.64" y="-1774.35" font-family="Helvetica,sans-Serif" font-size="9.00" fill="#343a40">No</text>
</g>
<!-- LRB&#45;&gt;OB -->
<g id="edge26" class="edge">
<title>LRB&#45;&gt;OB</title>
<path fill="none" stroke="#555f6b" stroke-width="1.35" d="M709.77,-1759.38C709.77,-1759.38 709.77,-1728.8 709.77,-1728.8"/>
<polygon fill="#555f6b" stroke="#555f6b" stroke-width="1.35" points="712.22,-1728.8 709.77,-1721.8 707.32,-1728.8 712.22,-1728.8"/>
</g>
<!-- AB -->
<g id="node30" class="node">
<title>AB</title>
<path fill="#fef0e5" stroke="#f3883b" stroke-width="2" d="M830.16,-1618.02C830.16,-1618.02 711.12,-1618.02 711.12,-1618.02 705.12,-1618.02 699.12,-1612.02 699.12,-1606.02 699.12,-1606.02 699.12,-1591.62 699.12,-1591.62 699.12,-1585.62 705.12,-1579.62 711.12,-1579.62 711.12,-1579.62 830.16,-1579.62 830.16,-1579.62 836.16,-1579.62 842.16,-1585.62 842.16,-1591.62 842.16,-1591.62 842.16,-1606.02 842.16,-1606.02 842.16,-1612.02 836.16,-1618.02 830.16,-1618.02"/>
<text xml:space="preserve" text-anchor="middle" x="770.64" y="-1600.37" font-family="Helvetica,sans-Serif" font-size="11.00" fill="#1a1c1f">BRAID: Attach session B</text>
<text xml:space="preserve" text-anchor="middle" x="770.64" y="-1588.37" font-family="Helvetica,sans-Serif" font-size="11.00" fill="#1a1c1f">to delegated thread B</text>
</g>
<!-- OB&#45;&gt;AB -->
<g id="edge34" class="edge">
<title>OB&#45;&gt;AB</title>
<path fill="none" stroke="#555f6b" stroke-width="1.35" d="M770.64,-1682.27C770.64,-1682.27 770.64,-1627.89 770.64,-1627.89"/>
<polygon fill="#555f6b" stroke="#555f6b" stroke-width="1.35" points="773.1,-1627.89 770.65,-1620.89 768.2,-1627.89 773.1,-1627.89"/>
</g>
<!-- CA&#45;&gt;AA -->
<g id="edge31" class="edge">
<title>CA&#45;&gt;AA</title>
<path fill="none" stroke="#555f6b" stroke-width="1.35" d="M117.02,-2130.45C117.02,-2031.59 117.02,-1599 117.02,-1599 117.02,-1599 317.81,-1599 317.81,-1599"/>
<polygon fill="#555f6b" stroke="#555f6b" stroke-width="1.35" points="317.81,-1601.45 324.81,-1599 317.81,-1596.55 317.81,-1601.45"/>
</g>
<!-- CB&#45;&gt;AB -->
<g id="edge32" class="edge">
<title>CB&#45;&gt;AB</title>
<path fill="none" stroke="#555f6b" stroke-width="1.35" d="M969.09,-2016.09C969.09,-1930.6 969.09,-1599 969.09,-1599 969.09,-1599 852.17,-1599 852.17,-1599"/>
<polygon fill="#555f6b" stroke="#555f6b" stroke-width="1.35" points="852.17,-1596.55 845.17,-1599 852.17,-1601.45 852.17,-1596.55"/>
</g>
<!-- GA -->
<g id="node31" class="node">
<title>GA</title>
<path fill="#fef0e5" stroke="#f3883b" stroke-width="2" d="M490.04,-1538.62C490.04,-1538.62 367.25,-1538.62 367.25,-1538.62 361.25,-1538.62 355.25,-1532.62 355.25,-1526.62 355.25,-1526.62 355.25,-1512.22 355.25,-1512.22 355.25,-1506.22 361.25,-1500.22 367.25,-1500.22 367.25,-1500.22 490.04,-1500.22 490.04,-1500.22 496.04,-1500.22 502.04,-1506.22 502.04,-1512.22 502.04,-1512.22 502.04,-1526.62 502.04,-1526.62 502.04,-1532.62 496.04,-1538.62 490.04,-1538.62"/>
<text xml:space="preserve" text-anchor="middle" x="428.64" y="-1520.97" font-family="Helvetica,sans-Serif" font-size="11.00" fill="#1a1c1f">BRAID: Evaluate scope A</text>
<text xml:space="preserve" text-anchor="middle" x="428.64" y="-1508.97" font-family="Helvetica,sans-Serif" font-size="11.00" fill="#1a1c1f">and evidence guards</text>
</g>
<!-- AA&#45;&gt;GA -->
<g id="edge35" class="edge">
<title>AA&#45;&gt;GA</title>
<path fill="none" stroke="#555f6b" stroke-width="1.35" d="M412.52,-1578.78C412.52,-1578.78 412.52,-1548.49 412.52,-1548.49"/>
<polygon fill="#555f6b" stroke="#555f6b" stroke-width="1.35" points="414.97,-1548.49 412.52,-1541.49 410.07,-1548.49 414.97,-1548.49"/>
</g>
<!-- GB -->
<g id="node32" class="node">
<title>GB</title>
<path fill="#fef0e5" stroke="#f3883b" stroke-width="2" d="M721.41,-1538.62C721.41,-1538.62 597.88,-1538.62 597.88,-1538.62 591.88,-1538.62 585.88,-1532.62 585.88,-1526.62 585.88,-1526.62 585.88,-1512.22 585.88,-1512.22 585.88,-1506.22 591.88,-1500.22 597.88,-1500.22 597.88,-1500.22 721.41,-1500.22 721.41,-1500.22 727.41,-1500.22 733.41,-1506.22 733.41,-1512.22 733.41,-1512.22 733.41,-1526.62 733.41,-1526.62 733.41,-1532.62 727.41,-1538.62 721.41,-1538.62"/>
<text xml:space="preserve" text-anchor="middle" x="659.64" y="-1520.97" font-family="Helvetica,sans-Serif" font-size="11.00" fill="#1a1c1f">BRAID: Evaluate scope B</text>
<text xml:space="preserve" text-anchor="middle" x="659.64" y="-1508.97" font-family="Helvetica,sans-Serif" font-size="11.00" fill="#1a1c1f">and evidence guards</text>
</g>
<!-- AB&#45;&gt;GB -->
<g id="edge36" class="edge">
<title>AB&#45;&gt;GB</title>
<path fill="none" stroke="#555f6b" stroke-width="1.35" d="M716.27,-1578.78C716.27,-1578.78 716.27,-1548.49 716.27,-1548.49"/>
<polygon fill="#555f6b" stroke="#555f6b" stroke-width="1.35" points="718.72,-1548.49 716.27,-1541.49 713.82,-1548.49 718.72,-1548.49"/>
</g>
<!-- FOLD -->
<g id="node33" class="node">
<title>FOLD</title>
<path fill="#fef0e5" stroke="#f3883b" stroke-width="2" d="M604.54,-1459.22C604.54,-1459.22 454.75,-1459.22 454.75,-1459.22 448.75,-1459.22 442.75,-1453.22 442.75,-1447.22 442.75,-1447.22 442.75,-1432.82 442.75,-1432.82 442.75,-1426.82 448.75,-1420.82 454.75,-1420.82 454.75,-1420.82 604.54,-1420.82 604.54,-1420.82 610.54,-1420.82 616.54,-1426.82 616.54,-1432.82 616.54,-1432.82 616.54,-1447.22 616.54,-1447.22 616.54,-1453.22 610.54,-1459.22 604.54,-1459.22"/>
<text xml:space="preserve" text-anchor="middle" x="529.64" y="-1441.57" font-family="Helvetica,sans-Serif" font-size="11.00" fill="#1a1c1f">BRAID: Fold both thread states</text>
<text xml:space="preserve" text-anchor="middle" x="529.64" y="-1429.57" font-family="Helvetica,sans-Serif" font-size="11.00" fill="#1a1c1f">into parent&#45;goal state</text>
</g>
<!-- GA&#45;&gt;FOLD -->
<g id="edge37" class="edge">
<title>GA&#45;&gt;FOLD</title>
<path fill="none" stroke="#555f6b" stroke-width="1.35" d="M472.39,-1499.38C472.39,-1499.38 472.39,-1469.09 472.39,-1469.09"/>
<polygon fill="#555f6b" stroke="#555f6b" stroke-width="1.35" points="474.85,-1469.09 472.4,-1462.09 469.95,-1469.09 474.85,-1469.09"/>
</g>
<!-- GB&#45;&gt;FOLD -->
<g id="edge38" class="edge">
<title>GB&#45;&gt;FOLD</title>
<path fill="none" stroke="#555f6b" stroke-width="1.35" d="M601.21,-1499.38C601.21,-1499.38 601.21,-1469.09 601.21,-1469.09"/>
<polygon fill="#555f6b" stroke="#555f6b" stroke-width="1.35" points="603.66,-1469.09 601.21,-1462.09 598.76,-1469.09 603.66,-1469.09"/>
</g>
<!-- READY -->
<g id="node34" class="node">
<title>READY</title>
<path fill="#fef0e5" stroke="#f3883b" stroke-width="2" d="M517.84,-1377.65C517.84,-1377.65 364.3,-1349.35 364.3,-1349.35 358.4,-1348.27 358.4,-1346.09 364.3,-1345.01 364.3,-1345.01 517.84,-1316.71 517.84,-1316.71 523.74,-1315.63 535.55,-1315.63 541.45,-1316.71 541.45,-1316.71 694.99,-1345.01 694.99,-1345.01 700.89,-1346.09 700.89,-1348.27 694.99,-1349.35 694.99,-1349.35 541.45,-1377.65 541.45,-1377.65 535.55,-1378.73 523.74,-1378.73 517.84,-1377.65"/>
<text xml:space="preserve" text-anchor="middle" x="529.64" y="-1348.73" font-family="Helvetica,sans-Serif" font-size="11.00" fill="#1a1c1f">BRAID: All active threads terminal</text>
<text xml:space="preserve" text-anchor="middle" x="529.64" y="-1336.73" font-family="Helvetica,sans-Serif" font-size="11.00" fill="#1a1c1f">and evidence guards pass?</text>
</g>
<!-- FOLD&#45;&gt;READY -->
<g id="edge39" class="edge">
<title>FOLD&#45;&gt;READY</title>
<path fill="none" stroke="#555f6b" stroke-width="1.35" d="M529.64,-1419.88C529.64,-1419.88 529.64,-1389.84 529.64,-1389.84"/>
<polygon fill="#555f6b" stroke="#555f6b" stroke-width="1.35" points="532.1,-1389.84 529.65,-1382.84 527.2,-1389.84 532.1,-1389.84"/>
</g>
<!-- HOLD -->
<g id="node35" class="node">
<title>HOLD</title>
<path fill="#fef0e5" stroke="#f3883b" stroke-width="2" d="M244.54,-1251.35C244.54,-1251.35 94.75,-1251.35 94.75,-1251.35 88.75,-1251.35 82.75,-1245.35 82.75,-1239.35 82.75,-1239.35 82.75,-1224.95 82.75,-1224.95 82.75,-1218.95 88.75,-1212.95 94.75,-1212.95 94.75,-1212.95 244.54,-1212.95 244.54,-1212.95 250.54,-1212.95 256.54,-1218.95 256.54,-1224.95 256.54,-1224.95 256.54,-1239.35 256.54,-1239.35 256.54,-1245.35 250.54,-1251.35 244.54,-1251.35"/>
<text xml:space="preserve" text-anchor="middle" x="169.64" y="-1233.7" font-family="Helvetica,sans-Serif" font-size="11.00" fill="#1a1c1f">BRAID: Hold, request evidence</text>
<text xml:space="preserve" text-anchor="middle" x="169.64" y="-1221.7" font-family="Helvetica,sans-Serif" font-size="11.00" fill="#1a1c1f">or report violations</text>
</g>
<!-- READY&#45;&gt;HOLD -->
<g id="edge40" class="edge">
<title>READY&#45;&gt;HOLD</title>
<path fill="none" stroke="#555f6b" stroke-width="1.35" d="M348.26,-1347C292.62,-1347 245.77,-1347 245.77,-1347 245.77,-1347 245.77,-1261.2 245.77,-1261.2"/>
<polygon fill="#555f6b" stroke="#555f6b" stroke-width="1.35" points="248.22,-1261.2 245.77,-1254.2 243.32,-1261.2 248.22,-1261.2"/>
<text xml:space="preserve" text-anchor="middle" x="448.64" y="-1285.99" font-family="Helvetica,sans-Serif" font-size="9.00" fill="#343a40">No</text>
</g>
<!-- COVERAGE -->
<g id="node36" class="node">
<title>COVERAGE</title>
<path fill="#fef0e5" stroke="#f3883b" stroke-width="2" d="M806.9,-1262.35C806.9,-1262.35 673.49,-1234.59 673.49,-1234.59 667.62,-1233.37 667.62,-1230.93 673.49,-1229.71 673.49,-1229.71 806.9,-1201.95 806.9,-1201.95 812.77,-1200.73 824.52,-1200.73 830.39,-1201.95 830.39,-1201.95 963.8,-1229.71 963.8,-1229.71 969.67,-1230.93 969.67,-1233.37 963.8,-1234.59 963.8,-1234.59 830.39,-1262.35 830.39,-1262.35 824.52,-1263.57 812.77,-1263.57 806.9,-1262.35"/>
<text xml:space="preserve" text-anchor="middle" x="818.64" y="-1233.7" font-family="Helvetica,sans-Serif" font-size="11.00" fill="#1a1c1f">BRAID: Every required scope</text>
<text xml:space="preserve" text-anchor="middle" x="818.64" y="-1221.7" font-family="Helvetica,sans-Serif" font-size="11.00" fill="#1a1c1f">obligation covered?</text>
</g>
<!-- READY&#45;&gt;COVERAGE -->
<g id="edge43" class="edge">
<title>READY&#45;&gt;COVERAGE</title>
<path fill="none" stroke="#555f6b" stroke-width="1.35" d="M684.27,-1342.24C684.27,-1342.24 684.27,-1246.78 684.27,-1246.78"/>
<polygon fill="#555f6b" stroke="#555f6b" stroke-width="1.35" points="686.72,-1246.78 684.27,-1239.78 681.82,-1246.78 686.72,-1246.78"/>
<text xml:space="preserve" text-anchor="middle" x="623.77" y="-1285.99" font-family="Helvetica,sans-Serif" font-size="9.00" fill="#343a40">Yes</text>
</g>
<!-- HOLD&#45;&gt;PA -->
<g id="edge41" class="edge">
<title>HOLD&#45;&gt;PA</title>
<path fill="none" stroke="#555f6b" stroke-width="1.35" d="M173.61,-1252.24C173.61,-1397.8 173.61,-2285 173.61,-2285 173.61,-2285 247.85,-2285 247.85,-2285"/>
<polygon fill="#555f6b" stroke="#555f6b" stroke-width="1.35" points="247.85,-2287.45 254.85,-2285 247.85,-2282.55 247.85,-2287.45"/>
</g>
<!-- HOLD&#45;&gt;PB -->
<g id="edge42" class="edge">
<title>HOLD&#45;&gt;PB</title>
<path fill="none" stroke="#555f6b" stroke-width="1.35" d="M195.93,-1251.95C195.93,-1393.48 195.93,-2246 195.93,-2246 195.93,-2246 767.56,-2246 767.56,-2246 767.56,-2246 767.56,-2256.71 767.56,-2256.71"/>
<polygon fill="#555f6b" stroke="#555f6b" stroke-width="1.35" points="765.11,-2256.71 767.56,-2263.71 770.01,-2256.71 765.11,-2256.71"/>
</g>
<!-- COVERAGE&#45;&gt;CONVERGE -->
<g id="edge46" class="edge">
<title>COVERAGE&#45;&gt;CONVERGE</title>
<path fill="none" stroke="#555f6b" stroke-width="1.35" d="M818.64,-1198.6C818.64,-1198.6 818.64,-1159.78 818.64,-1159.78"/>
<polygon fill="#555f6b" stroke="#555f6b" stroke-width="1.35" points="821.1,-1159.78 818.65,-1152.78 816.2,-1159.78 821.1,-1159.78"/>
<text xml:space="preserve" text-anchor="middle" x="825.77" y="-1170.96" font-family="Helvetica,sans-Serif" font-size="9.00" fill="#343a40">Yes</text>
</g>
<!-- COVERAGEHOLD -->
<g id="node37" class="node">
<title>COVERAGEHOLD</title>
<path fill="#fef0e5" stroke="#f3883b" stroke-width="2" d="M1180.41,-1149.76C1180.41,-1149.76 1002.88,-1149.76 1002.88,-1149.76 996.88,-1149.76 990.88,-1143.76 990.88,-1137.76 990.88,-1137.76 990.88,-1123.36 990.88,-1123.36 990.88,-1117.36 996.88,-1111.36 1002.88,-1111.36 1002.88,-1111.36 1180.41,-1111.36 1180.41,-1111.36 1186.41,-1111.36 1192.41,-1117.36 1192.41,-1123.36 1192.41,-1123.36 1192.41,-1137.76 1192.41,-1137.76 1192.41,-1143.76 1186.41,-1149.76 1180.41,-1149.76"/>
<text xml:space="preserve" text-anchor="middle" x="1091.64" y="-1132.11" font-family="Helvetica,sans-Serif" font-size="11.00" fill="#1a1c1f">BRAID: Require replacement, waiver</text>
<text xml:space="preserve" text-anchor="middle" x="1091.64" y="-1120.11" font-family="Helvetica,sans-Serif" font-size="11.00" fill="#1a1c1f">or goal reconfirmation</text>
</g>
<!-- COVERAGE&#45;&gt;COVERAGEHOLD -->
<g id="edge44" class="edge">
<title>COVERAGE&#45;&gt;COVERAGEHOLD</title>
<path fill="none" stroke="#555f6b" stroke-width="1.35" d="M950.71,-1226.13C950.71,-1204.35 950.71,-1131 950.71,-1131 950.71,-1131 980.92,-1131 980.92,-1131"/>
<polygon fill="#555f6b" stroke="#555f6b" stroke-width="1.35" points="980.92,-1133.45 987.92,-1131 980.92,-1128.55 980.92,-1133.45"/>
<text xml:space="preserve" text-anchor="middle" x="1056.64" y="-1170.96" font-family="Helvetica,sans-Serif" font-size="9.00" fill="#343a40">No</text>
</g>
<!-- COVERAGEHOLD&#45;&gt;PLANNER -->
<g id="edge45" class="edge">
<title>COVERAGEHOLD&#45;&gt;PLANNER</title>
<path fill="none" stroke="#555f6b" stroke-width="1.35" d="M1132.35,-1150.51C1132.35,-1150.51 1132.35,-2636.44 1132.35,-2636.44"/>
<polygon fill="#555f6b" stroke="#555f6b" stroke-width="1.35" points="1129.9,-2636.43 1132.35,-2643.44 1134.8,-2636.44 1129.9,-2636.43"/>
</g>
<!-- REVIEW -->
<g id="node42" class="node">
<title>REVIEW</title>
<path fill="#fef0e5" stroke="#f3883b" stroke-width="2" d="M1168.04,-990.96C1168.04,-990.96 985.25,-990.96 985.25,-990.96 979.25,-990.96 973.25,-984.96 973.25,-978.96 973.25,-978.96 973.25,-964.56 973.25,-964.56 973.25,-958.56 979.25,-952.56 985.25,-952.56 985.25,-952.56 1168.04,-952.56 1168.04,-952.56 1174.04,-952.56 1180.04,-958.56 1180.04,-964.56 1180.04,-964.56 1180.04,-978.96 1180.04,-978.96 1180.04,-984.96 1174.04,-990.96 1168.04,-990.96"/>
<text xml:space="preserve" text-anchor="middle" x="1076.64" y="-973.31" font-family="Helvetica,sans-Serif" font-size="11.00" fill="#1a1c1f">BRAID: Open review round</text>
<text xml:space="preserve" text-anchor="middle" x="1076.64" y="-961.31" font-family="Helvetica,sans-Serif" font-size="11.00" fill="#1a1c1f">freeze candidate + assemble evidence</text>
</g>
<!-- INTEGRATION&#45;&gt;REVIEW -->
<g id="edge48" class="edge">
<title>INTEGRATION&#45;&gt;REVIEW</title>
<path fill="none" stroke="#555f6b" stroke-width="1.35" d="M1008.33,-1031.12C1008.33,-1031.12 1008.33,-1000.83 1008.33,-1000.83"/>
<polygon fill="#555f6b" stroke="#555f6b" stroke-width="1.35" points="1010.78,-1000.83 1008.33,-993.83 1005.88,-1000.83 1010.78,-1000.83"/>
</g>
<!-- CR1 -->
<g id="node39" class="node">
<title>CR1</title>
<path fill="#e1f6e8" stroke="#299052" stroke-width="2" d="M1197.66,-911.56C1197.66,-911.56 1069.62,-911.56 1069.62,-911.56 1063.62,-911.56 1057.62,-905.56 1057.62,-899.56 1057.62,-899.56 1057.62,-887.56 1057.62,-887.56 1057.62,-881.56 1063.62,-875.56 1069.62,-875.56 1069.62,-875.56 1197.66,-875.56 1197.66,-875.56 1203.66,-875.56 1209.66,-881.56 1209.66,-887.56 1209.66,-887.56 1209.66,-899.56 1209.66,-899.56 1209.66,-905.56 1203.66,-911.56 1197.66,-911.56"/>
<text xml:space="preserve" text-anchor="middle" x="1133.64" y="-889.11" font-family="Helvetica,sans-Serif" font-size="11.00" fill="#1a1c1f">Code correctness reviewer</text>
</g>
<!-- VERDICTS -->
<g id="node43" class="node">
<title>VERDICTS</title>
<path fill="#fef0e5" stroke="#f3883b" stroke-width="2" d="M1193.04,-834.56C1193.04,-834.56 1046.25,-834.56 1046.25,-834.56 1040.25,-834.56 1034.25,-828.56 1034.25,-822.56 1034.25,-822.56 1034.25,-810.56 1034.25,-810.56 1034.25,-804.56 1040.25,-798.56 1046.25,-798.56 1046.25,-798.56 1193.04,-798.56 1193.04,-798.56 1199.04,-798.56 1205.04,-804.56 1205.04,-810.56 1205.04,-810.56 1205.04,-822.56 1205.04,-822.56 1205.04,-828.56 1199.04,-834.56 1193.04,-834.56"/>
<text xml:space="preserve" text-anchor="middle" x="1119.64" y="-812.11" font-family="Helvetica,sans-Serif" font-size="11.00" fill="#1a1c1f">BRAID: Collect signed verdicts</text>
</g>
<!-- CR1&#45;&gt;VERDICTS -->
<g id="edge52" class="edge">
<title>CR1&#45;&gt;VERDICTS</title>
<path fill="none" stroke="#555f6b" stroke-width="1.35" d="M1131.33,-874.92C1131.33,-874.92 1131.33,-844.34 1131.33,-844.34"/>
<polygon fill="#555f6b" stroke="#555f6b" stroke-width="1.35" points="1133.78,-844.34 1131.33,-837.34 1128.88,-844.34 1133.78,-844.34"/>
</g>
<!-- CR2 -->
<g id="node40" class="node">
<title>CR2</title>
<path fill="#e1f6e8" stroke="#299052" stroke-width="2" d="M1383.16,-911.56C1383.16,-911.56 1246.12,-911.56 1246.12,-911.56 1240.12,-911.56 1234.12,-905.56 1234.12,-899.56 1234.12,-899.56 1234.12,-887.56 1234.12,-887.56 1234.12,-881.56 1240.12,-875.56 1246.12,-875.56 1246.12,-875.56 1383.16,-875.56 1383.16,-875.56 1389.16,-875.56 1395.16,-881.56 1395.16,-887.56 1395.16,-887.56 1395.16,-899.56 1395.16,-899.56 1395.16,-905.56 1389.16,-911.56 1383.16,-911.56"/>
<text xml:space="preserve" text-anchor="middle" x="1314.64" y="-889.11" font-family="Helvetica,sans-Serif" font-size="11.00" fill="#1a1c1f">Test and integration reviewer</text>
</g>
<!-- CR2&#45;&gt;VERDICTS -->
<g id="edge53" class="edge">
<title>CR2&#45;&gt;VERDICTS</title>
<path fill="none" stroke="#555f6b" stroke-width="1.35" d="M1241.84,-874.64C1241.84,-851.96 1241.84,-817 1241.84,-817 1241.84,-817 1214.88,-817 1214.88,-817"/>
<polygon fill="#555f6b" stroke="#555f6b" stroke-width="1.35" points="1214.88,-814.55 1207.88,-817 1214.88,-819.45 1214.88,-814.55"/>
</g>
<!-- CR3 -->
<g id="node41" class="node">
<title>CR3</title>
<path fill="#e1f6e8" stroke="#299052" stroke-width="2" d="M1021.41,-911.56C1021.41,-911.56 867.88,-911.56 867.88,-911.56 861.88,-911.56 855.88,-905.56 855.88,-899.56 855.88,-899.56 855.88,-887.56 855.88,-887.56 855.88,-881.56 861.88,-875.56 867.88,-875.56 867.88,-875.56 1021.41,-875.56 1021.41,-875.56 1027.41,-875.56 1033.41,-881.56 1033.41,-887.56 1033.41,-887.56 1033.41,-899.56 1033.41,-899.56 1033.41,-905.56 1027.41,-911.56 1021.41,-911.56"/>
<text xml:space="preserve" text-anchor="middle" x="944.64" y="-889.11" font-family="Helvetica,sans-Serif" font-size="11.00" fill="#1a1c1f">Architecture or security reviewer</text>
</g>
<!-- CR3&#45;&gt;VERDICTS -->
<g id="edge54" class="edge">
<title>CR3&#45;&gt;VERDICTS</title>
<path fill="none" stroke="#555f6b" stroke-width="1.35" d="M1034.32,-894C1041.43,-894 1045.94,-894 1045.94,-894 1045.94,-894 1045.94,-844.35 1045.94,-844.35"/>
<polygon fill="#555f6b" stroke="#555f6b" stroke-width="1.35" points="1048.39,-844.35 1045.94,-837.35 1043.49,-844.35 1048.39,-844.35"/>
</g>
<!-- REVIEW&#45;&gt;CR1 -->
<g id="edge49" class="edge">
<title>REVIEW&#45;&gt;CR1</title>
<path fill="none" stroke="#555f6b" stroke-width="1.35" d="M1118.83,-951.62C1118.83,-951.62 1118.83,-921.6 1118.83,-921.6"/>
<polygon fill="#555f6b" stroke="#555f6b" stroke-width="1.35" points="1121.28,-921.6 1118.83,-914.6 1116.38,-921.6 1121.28,-921.6"/>
</g>
<!-- REVIEW&#45;&gt;CR2 -->
<g id="edge50" class="edge">
<title>REVIEW&#45;&gt;CR2</title>
<path fill="none" stroke="#555f6b" stroke-width="1.35" d="M1180.7,-972C1216.19,-972 1247.09,-972 1247.09,-972 1247.09,-972 1247.09,-921.59 1247.09,-921.59"/>
<polygon fill="#555f6b" stroke="#555f6b" stroke-width="1.35" points="1249.54,-921.59 1247.09,-914.59 1244.64,-921.59 1249.54,-921.59"/>
</g>
<!-- REVIEW&#45;&gt;CR3 -->
<g id="edge51" class="edge">
<title>REVIEW&#45;&gt;CR3</title>
<path fill="none" stroke="#555f6b" stroke-width="1.35" d="M1003.33,-951.62C1003.33,-951.62 1003.33,-921.6 1003.33,-921.6"/>
<polygon fill="#555f6b" stroke="#555f6b" stroke-width="1.35" points="1005.78,-921.6 1003.33,-914.6 1000.88,-921.6 1005.78,-921.6"/>
</g>
<!-- FRESH -->
<g id="node44" class="node">
<title>FRESH</title>
<path fill="#fef0e5" stroke="#f3883b" stroke-width="2" d="M1086.92,-755.02C1086.92,-755.02 959.47,-727.46 959.47,-727.46 953.61,-726.19 953.61,-723.65 959.47,-722.38 959.47,-722.38 1086.92,-694.82 1086.92,-694.82 1092.78,-693.55 1104.51,-693.55 1110.37,-694.82 1110.37,-694.82 1237.82,-722.38 1237.82,-722.38 1243.68,-723.65 1243.68,-726.19 1237.82,-727.46 1237.82,-727.46 1110.37,-755.02 1110.37,-755.02 1104.51,-756.29 1092.78,-756.29 1086.92,-755.02"/>
<text xml:space="preserve" text-anchor="middle" x="1098.64" y="-726.47" font-family="Helvetica,sans-Serif" font-size="11.00" fill="#1a1c1f">BRAID: Candidate SHA and</text>
<text xml:space="preserve" text-anchor="middle" x="1098.64" y="-714.47" font-family="Helvetica,sans-Serif" font-size="11.00" fill="#1a1c1f">evidence digest unchanged?</text>
</g>
<!-- VERDICTS&#45;&gt;FRESH -->
<g id="edge55" class="edge">
<title>VERDICTS&#45;&gt;FRESH</title>
<path fill="none" stroke="#555f6b" stroke-width="1.35" d="M1119.64,-797.57C1119.64,-797.57 1119.64,-763.04 1119.64,-763.04"/>
<polygon fill="#555f6b" stroke="#555f6b" stroke-width="1.35" points="1122.1,-763.04 1119.65,-756.04 1117.2,-763.04 1122.1,-763.04"/>
</g>
<!-- INVALIDATE -->
<g id="node45" class="node">
<title>INVALIDATE</title>
<path fill="#fef0e5" stroke="#f3883b" stroke-width="2" d="M967.91,-642.53C967.91,-642.53 817.38,-642.53 817.38,-642.53 811.38,-642.53 805.38,-636.53 805.38,-630.53 805.38,-630.53 805.38,-616.13 805.38,-616.13 805.38,-610.13 811.38,-604.13 817.38,-604.13 817.38,-604.13 967.91,-604.13 967.91,-604.13 973.91,-604.13 979.91,-610.13 979.91,-616.13 979.91,-616.13 979.91,-630.53 979.91,-630.53 979.91,-636.53 973.91,-642.53 967.91,-642.53"/>
<text xml:space="preserve" text-anchor="middle" x="892.64" y="-624.88" font-family="Helvetica,sans-Serif" font-size="11.00" fill="#1a1c1f">BRAID: Invalidate stale verdicts</text>
<text xml:space="preserve" text-anchor="middle" x="892.64" y="-612.88" font-family="Helvetica,sans-Serif" font-size="11.00" fill="#1a1c1f">and close review round</text>
</g>
<!-- FRESH&#45;&gt;INVALIDATE -->
<g id="edge56" class="edge">
<title>FRESH&#45;&gt;INVALIDATE</title>
<path fill="none" stroke="#555f6b" stroke-width="1.35" d="M963.83,-720.55C963.83,-720.55 963.83,-652.26 963.83,-652.26"/>
<polygon fill="#555f6b" stroke="#555f6b" stroke-width="1.35" points="966.28,-652.26 963.83,-645.26 961.38,-652.26 966.28,-652.26"/>
<text xml:space="preserve" text-anchor="middle" x="980.64" y="-663.73" font-family="Helvetica,sans-Serif" font-size="9.00" fill="#343a40">No</text>
</g>
<!-- POLICY -->
<g id="node46" class="node">
<title>POLICY</title>
<path fill="#fef0e5" stroke="#f3883b" stroke-width="2" d="M1181.04,-642.53C1181.04,-642.53 1016.25,-642.53 1016.25,-642.53 1010.25,-642.53 1004.25,-636.53 1004.25,-630.53 1004.25,-630.53 1004.25,-616.13 1004.25,-616.13 1004.25,-610.13 1010.25,-604.13 1016.25,-604.13 1016.25,-604.13 1181.04,-604.13 1181.04,-604.13 1187.04,-604.13 1193.04,-610.13 1193.04,-616.13 1193.04,-616.13 1193.04,-630.53 1193.04,-630.53 1193.04,-636.53 1187.04,-642.53 1181.04,-642.53"/>
<text xml:space="preserve" text-anchor="middle" x="1098.64" y="-624.88" font-family="Helvetica,sans-Serif" font-size="11.00" fill="#1a1c1f">BRAID: Independent policy engine</text>
<text xml:space="preserve" text-anchor="middle" x="1098.64" y="-612.88" font-family="Helvetica,sans-Serif" font-size="11.00" fill="#1a1c1f">evaluates evidence and quorum</text>
</g>
<!-- FRESH&#45;&gt;POLICY -->
<g id="edge58" class="edge">
<title>FRESH&#45;&gt;POLICY</title>
<path fill="none" stroke="#555f6b" stroke-width="1.35" d="M1098.64,-691.37C1098.64,-691.37 1098.64,-652.55 1098.64,-652.55"/>
<polygon fill="#555f6b" stroke="#555f6b" stroke-width="1.35" points="1101.1,-652.55 1098.65,-645.55 1096.2,-652.55 1101.1,-652.55"/>
<text xml:space="preserve" text-anchor="middle" x="1105.77" y="-663.73" font-family="Helvetica,sans-Serif" font-size="9.00" fill="#343a40">Yes</text>
</g>
<!-- INVALIDATE&#45;&gt;CONVERGE -->
<g id="edge57" class="edge">
<title>INVALIDATE&#45;&gt;CONVERGE</title>
<path fill="none" stroke="#555f6b" stroke-width="1.35" d="M830.62,-643.53C830.62,-643.53 830.62,-1101.54 830.62,-1101.54"/>
<polygon fill="#555f6b" stroke="#555f6b" stroke-width="1.35" points="828.18,-1101.54 830.63,-1108.54 833.08,-1101.54 828.18,-1101.54"/>
</g>
<!-- MORE -->
<g id="node47" class="node">
<title>MORE</title>
<path fill="#fef0e5" stroke="#f3883b" stroke-width="2" d="M873.66,-554.38C873.66,-554.38 703.62,-554.38 703.62,-554.38 697.62,-554.38 691.62,-548.38 691.62,-542.38 691.62,-542.38 691.62,-527.98 691.62,-527.98 691.62,-521.98 697.62,-515.98 703.62,-515.98 703.62,-515.98 873.66,-515.98 873.66,-515.98 879.66,-515.98 885.66,-521.98 885.66,-527.98 885.66,-527.98 885.66,-542.38 885.66,-542.38 885.66,-548.38 879.66,-554.38 873.66,-554.38"/>
<text xml:space="preserve" text-anchor="middle" x="788.64" y="-536.73" font-family="Helvetica,sans-Serif" font-size="11.00" fill="#1a1c1f">BRAID: Require changes, evidence</text>
<text xml:space="preserve" text-anchor="middle" x="788.64" y="-524.73" font-family="Helvetica,sans-Serif" font-size="11.00" fill="#1a1c1f">or human exception</text>
</g>
<!-- POLICY&#45;&gt;MORE -->
<g id="edge59" class="edge">
<title>POLICY&#45;&gt;MORE</title>
<path fill="none" stroke="#555f6b" stroke-width="1.35" d="M1021.31,-603.24C1021.31,-591.51 1021.31,-579 1021.31,-579 1021.31,-579 845.52,-579 845.52,-579 845.52,-579 845.52,-564.34 845.52,-564.34"/>
<polygon fill="#555f6b" stroke="#555f6b" stroke-width="1.35" points="847.97,-564.34 845.52,-557.34 843.07,-564.34 847.97,-564.34"/>
<text xml:space="preserve" text-anchor="middle" x="885.39" y="-575.58" font-family="Helvetica,sans-Serif" font-size="9.00" fill="#343a40">HOLD</text>
</g>
<!-- STOP -->
<g id="node48" class="node">
<title>STOP</title>
<path fill="#fef0e5" stroke="#f3883b" stroke-width="2" d="M1208.04,-554.38C1208.04,-554.38 1091.25,-554.38 1091.25,-554.38 1085.25,-554.38 1079.25,-548.38 1079.25,-542.38 1079.25,-542.38 1079.25,-527.98 1079.25,-527.98 1079.25,-521.98 1085.25,-515.98 1091.25,-515.98 1091.25,-515.98 1208.04,-515.98 1208.04,-515.98 1214.04,-515.98 1220.04,-521.98 1220.04,-527.98 1220.04,-527.98 1220.04,-542.38 1220.04,-542.38 1220.04,-548.38 1214.04,-554.38 1208.04,-554.38"/>
<text xml:space="preserve" text-anchor="middle" x="1149.64" y="-536.73" font-family="Helvetica,sans-Serif" font-size="11.00" fill="#1a1c1f">BRAID: Block promotion</text>
<text xml:space="preserve" text-anchor="middle" x="1149.64" y="-524.73" font-family="Helvetica,sans-Serif" font-size="11.00" fill="#1a1c1f">and record reasons</text>
</g>
<!-- POLICY&#45;&gt;STOP -->
<g id="edge61" class="edge">
<title>POLICY&#45;&gt;STOP</title>
<path fill="none" stroke="#555f6b" stroke-width="1.35" d="M1136.14,-603.33C1136.14,-603.33 1136.14,-564.15 1136.14,-564.15"/>
<polygon fill="#555f6b" stroke="#555f6b" stroke-width="1.35" points="1138.6,-564.15 1136.15,-557.15 1133.7,-564.15 1138.6,-564.15"/>
<text xml:space="preserve" text-anchor="middle" x="1167.27" y="-575.58" font-family="Helvetica,sans-Serif" font-size="9.00" fill="#343a40">REJECT</text>
</g>
<!-- AUTH -->
<g id="node49" class="node">
<title>AUTH</title>
<path fill="#fef0e5" stroke="#f3883b" stroke-width="2" d="M1043.41,-554.38C1043.41,-554.38 931.88,-554.38 931.88,-554.38 925.88,-554.38 919.88,-548.38 919.88,-542.38 919.88,-542.38 919.88,-527.98 919.88,-527.98 919.88,-521.98 925.88,-515.98 931.88,-515.98 931.88,-515.98 1043.41,-515.98 1043.41,-515.98 1049.41,-515.98 1055.41,-521.98 1055.41,-527.98 1055.41,-527.98 1055.41,-542.38 1055.41,-542.38 1055.41,-548.38 1049.41,-554.38 1043.41,-554.38"/>
<text xml:space="preserve" text-anchor="middle" x="987.64" y="-536.73" font-family="Helvetica,sans-Serif" font-size="11.00" fill="#1a1c1f">BRAID: Issue signed</text>
<text xml:space="preserve" text-anchor="middle" x="987.64" y="-524.73" font-family="Helvetica,sans-Serif" font-size="11.00" fill="#1a1c1f">promotion authorization</text>
</g>
<!-- POLICY&#45;&gt;AUTH -->
<g id="edge62" class="edge">
<title>POLICY&#45;&gt;AUTH</title>
<path fill="none" stroke="#555f6b" stroke-width="1.35" d="M1038.36,-603.33C1038.36,-603.33 1038.36,-564.15 1038.36,-564.15"/>
<polygon fill="#555f6b" stroke="#555f6b" stroke-width="1.35" points="1040.81,-564.15 1038.36,-557.15 1035.91,-564.15 1040.81,-564.15"/>
<text xml:space="preserve" text-anchor="middle" x="1054.39" y="-575.58" font-family="Helvetica,sans-Serif" font-size="9.00" fill="#343a40">ALLOW</text>
</g>
<!-- MORE&#45;&gt;CONVERGE -->
<g id="edge60" class="edge">
<title>MORE&#45;&gt;CONVERGE</title>
<path fill="none" stroke="#555f6b" stroke-width="1.35" d="M770.06,-555.33C770.06,-555.33 770.06,-1101.37 770.06,-1101.37"/>
<polygon fill="#555f6b" stroke="#555f6b" stroke-width="1.35" points="767.61,-1101.37 770.06,-1108.37 772.51,-1101.37 767.61,-1101.37"/>
</g>
<!-- PROMOTING -->
<g id="node50" class="node">
<title>PROMOTING</title>
<path fill="#fef0e5" stroke="#f3883b" stroke-width="2" d="M1053.54,-474.98C1053.54,-474.98 921.75,-474.98 921.75,-474.98 915.75,-474.98 909.75,-468.98 909.75,-462.98 909.75,-462.98 909.75,-448.58 909.75,-448.58 909.75,-442.58 915.75,-436.58 921.75,-436.58 921.75,-436.58 1053.54,-436.58 1053.54,-436.58 1059.54,-436.58 1065.54,-442.58 1065.54,-448.58 1065.54,-448.58 1065.54,-462.98 1065.54,-462.98 1065.54,-468.98 1059.54,-474.98 1053.54,-474.98"/>
<text xml:space="preserve" text-anchor="middle" x="987.64" y="-457.33" font-family="Helvetica,sans-Serif" font-size="11.00" fill="#1a1c1f">BRAID: braid promote</text>
<text xml:space="preserve" text-anchor="middle" x="987.64" y="-445.33" font-family="Helvetica,sans-Serif" font-size="11.00" fill="#1a1c1f">start idempotent transaction</text>
</g>
<!-- AUTH&#45;&gt;PROMOTING -->
<g id="edge63" class="edge">
<title>AUTH&#45;&gt;PROMOTING</title>
<path fill="none" stroke="#555f6b" stroke-width="1.35" d="M987.64,-515.14C987.64,-515.14 987.64,-484.85 987.64,-484.85"/>
<polygon fill="#555f6b" stroke="#555f6b" stroke-width="1.35" points="990.1,-484.85 987.65,-477.85 985.2,-484.85 990.1,-484.85"/>
</g>
<!-- PROMOTING&#45;&gt;MERGE -->
<g id="edge64" class="edge">
<title>PROMOTING&#45;&gt;MERGE</title>
<path fill="none" stroke="#555f6b" stroke-width="1.35" d="M948.02,-435.74C948.02,-435.74 948.02,-405.45 948.02,-405.45"/>
<polygon fill="#555f6b" stroke="#555f6b" stroke-width="1.35" points="950.47,-405.45 948.02,-398.45 945.57,-405.45 950.47,-405.45"/>
</g>
<!-- COMPLETE -->
<g id="node52" class="node">
<title>COMPLETE</title>
<path fill="#fef0e5" stroke="#f3883b" stroke-width="2" d="M952.09,-224.81C952.09,-224.81 858.05,-198.61 858.05,-198.61 852.27,-197 852.27,-193.78 858.05,-192.17 858.05,-192.17 952.09,-165.97 952.09,-165.97 957.87,-164.36 969.42,-164.36 975.2,-165.97 975.2,-165.97 1069.24,-192.17 1069.24,-192.17 1075.02,-193.78 1075.02,-197 1069.24,-198.61 1069.24,-198.61 975.2,-224.81 975.2,-224.81 969.42,-226.42 957.87,-226.42 952.09,-224.81"/>
<text xml:space="preserve" text-anchor="middle" x="963.64" y="-196.94" font-family="Helvetica,sans-Serif" font-size="11.00" fill="#1a1c1f">BRAID: All promotion</text>
<text xml:space="preserve" text-anchor="middle" x="963.64" y="-184.94" font-family="Helvetica,sans-Serif" font-size="11.00" fill="#1a1c1f">effects committed?</text>
</g>
<!-- FINALIZE&#45;&gt;COMPLETE -->
<g id="edge66" class="edge">
<title>FINALIZE&#45;&gt;COMPLETE</title>
<path fill="none" stroke="#555f6b" stroke-width="1.35" d="M917.64,-268.09C917.64,-268.09 917.64,-225.18 917.64,-225.18"/>
<polygon fill="#555f6b" stroke="#555f6b" stroke-width="1.35" points="920.09,-225.18 917.64,-218.18 915.19,-225.18 920.09,-225.18"/>
</g>
<!-- COMPLETE&#45;&gt;PROMOTING -->
<g id="edge67" class="edge">
<title>COMPLETE&#45;&gt;PROMOTING</title>
<path fill="none" stroke="#555f6b" stroke-width="1.35" d="M1027.16,-211.29C1027.16,-211.29 1027.16,-426.88 1027.16,-426.88"/>
<polygon fill="#555f6b" stroke="#555f6b" stroke-width="1.35" points="1024.72,-426.88 1027.17,-433.88 1029.62,-426.88 1024.72,-426.88"/>
<text xml:space="preserve" text-anchor="middle" x="1056.02" y="-328.63" font-family="Helvetica,sans-Serif" font-size="9.00" fill="#343a40">No, retry safely</text>
</g>
<!-- PROMOTE -->
<g id="node53" class="node">
<title>PROMOTE</title>
<path fill="#fef0e5" stroke="#f3883b" stroke-width="2" d="M1020.16,-113C1020.16,-113 907.12,-113 907.12,-113 901.12,-113 895.12,-107 895.12,-101 895.12,-101 895.12,-89 895.12,-89 895.12,-83 901.12,-77 907.12,-77 907.12,-77 1020.16,-77 1020.16,-77 1026.16,-77 1032.16,-83 1032.16,-89 1032.16,-89 1032.16,-101 1032.16,-101 1032.16,-107 1026.16,-113 1020.16,-113"/>
<text xml:space="preserve" text-anchor="middle" x="963.64" y="-90.55" font-family="Helvetica,sans-Serif" font-size="11.00" fill="#1a1c1f">BRAID state: Promoted</text>
</g>
<!-- COMPLETE&#45;&gt;PROMOTE -->
<g id="edge68" class="edge">
<title>COMPLETE&#45;&gt;PROMOTE</title>
<path fill="none" stroke="#555f6b" stroke-width="1.35" d="M963.64,-161.96C963.64,-161.96 963.64,-122.99 963.64,-122.99"/>
<polygon fill="#555f6b" stroke="#555f6b" stroke-width="1.35" points="966.1,-122.99 963.65,-115.99 961.2,-122.99 966.1,-122.99"/>
<text xml:space="preserve" text-anchor="middle" x="970.77" y="-134.2" font-family="Helvetica,sans-Serif" font-size="9.00" fill="#343a40">Yes</text>
</g>
<!-- PROMOTE&#45;&gt;DONE -->
<g id="edge69" class="edge">
<title>PROMOTE&#45;&gt;DONE</title>
<path fill="none" stroke="#555f6b" stroke-width="1.35" d="M963.64,-76.36C963.64,-76.36 963.64,-45.78 963.64,-45.78"/>
<polygon fill="#555f6b" stroke="#555f6b" stroke-width="1.35" points="966.1,-45.78 963.65,-38.78 961.2,-45.78 966.1,-45.78"/>
</g>
</g>
</svg>
